<svg width="523" height="243" viewBox="0 0 523 243" fill="none" xmlns="http://www.w3.org/2000/svg">
<g opacity="0.5">
<path opacity="0.7" d="M522.999 235.878C518.226 236.915 513.25 239.021 507.879 242.812H509.086C514.029 239.432 518.587 237.52 522.988 236.537V235.878H522.999Z" fill="white"/>
<path opacity="0.7" d="M522.999 231.828C514.48 232.055 505.543 234.323 494.778 242.574C494.688 242.65 494.598 242.726 494.496 242.801H495.636C506.118 234.874 514.626 232.692 522.988 232.498V231.828H522.999Z" fill="white"/>
<path opacity="0.7" d="M522.999 228.308C511.794 228.221 500.86 228.805 485.988 239.021C484.205 240.242 482.502 241.516 480.82 242.801H481.971C483.416 241.7 484.894 240.62 486.406 239.572C501.097 229.474 511.918 228.902 522.999 228.988V228.308Z" fill="white"/>
<path opacity="0.7" d="M522.999 223.329C520.246 223.653 517.594 223.891 514.976 224.107C503.591 225.068 492.826 225.986 477.187 235.457C473.237 237.855 469.548 240.36 465.971 242.801H467.212C470.529 240.544 473.948 238.244 477.582 236.04C493.074 226.655 503.749 225.748 515.055 224.787C517.651 224.571 520.28 224.344 523.01 224.02V223.329H522.999Z" fill="white"/>
<path opacity="0.7" d="M523 215.499C515.981 217.627 510.057 218.793 504.336 219.906C493.696 221.979 483.619 223.934 468.397 231.904C465.475 233.438 462.677 234.971 459.968 236.462C455.861 238.719 451.923 240.89 447.951 242.812H449.52C453.085 241.041 456.64 239.097 460.33 237.066C463.038 235.576 465.836 234.043 468.747 232.52C483.867 224.603 493.876 222.66 504.483 220.597C510.17 219.484 516.049 218.34 523.011 216.234V215.499H523Z" fill="white"/>
<path opacity="0.7" d="M522.999 204.246C520.562 205.779 518.012 207.119 515.417 208.166L515.033 208.328C514.187 208.674 513.352 209.009 512.539 209.311C504.99 212.14 498.841 214.106 492.894 215.996C483.168 219.106 473.983 222.033 459.607 228.351L458.625 228.783C442.219 235.986 429.265 241.678 410.635 240.771C404.26 240.447 397.67 238.989 390.708 237.455C386.398 236.505 381.941 235.511 377.529 234.82C368.095 233.362 359.181 233.751 350.29 236.019C343.937 237.628 339.141 240.015 335.102 242.823H336.354C340.157 240.295 344.648 238.168 350.47 236.688C359.271 234.453 368.084 234.075 377.416 235.511C381.794 236.202 386.24 237.185 390.539 238.136C397.546 239.68 404.158 241.149 410.59 241.473C429.4 242.391 442.433 236.667 458.919 229.42L459.9 228.988C474.242 222.692 483.416 219.765 493.12 216.666C499.078 214.765 505.227 212.799 512.799 209.97C513.623 209.657 514.458 209.322 515.315 208.976L515.699 208.814C518.193 207.81 520.641 206.535 522.999 205.077V204.246Z" fill="white"/>
<path opacity="0.7" d="M523 188.359C517.911 193.846 510.791 198.9 503.423 202.27L502.497 202.691C501.888 202.972 501.29 203.252 500.692 203.512C495.321 205.877 490.796 207.983 486.429 210.013C475.946 214.895 466.886 219.106 450.806 224.776C434.524 230.522 420.712 233.6 402.162 231.17C396.723 230.446 391.137 229.021 385.236 227.519C380.395 226.288 375.396 225.014 370.42 224.139C361.213 222.552 352.603 222.789 344.084 224.863C330.803 228.103 325.15 234.853 319.158 241.991C318.932 242.261 318.707 242.52 318.492 242.79H319.417C319.519 242.672 319.621 242.542 319.722 242.423C325.635 235.371 331.209 228.718 344.264 225.532C352.682 223.48 361.19 223.243 370.285 224.809C375.227 225.673 380.215 226.947 385.033 228.178C390.968 229.69 396.576 231.116 402.049 231.85C420.746 234.302 434.648 231.202 451.032 225.414C467.134 219.722 476.206 215.51 486.711 210.618C491.078 208.587 495.592 206.492 500.963 204.116C501.561 203.857 502.17 203.576 502.779 203.296L503.693 202.874C510.892 199.58 517.843 194.688 522.955 189.353V188.359H523Z" fill="white"/>
<path opacity="0.7" d="M522.999 171.036C520.923 172.894 519.174 174.752 517.369 176.696C515.45 178.748 513.476 180.875 510.948 183.143C505.622 187.927 498.683 192.636 491.427 196.394C490.976 196.632 490.536 196.859 490.096 197.086C489.678 197.302 489.272 197.518 488.854 197.734C483.28 200.617 478.71 203.501 474.287 206.298C465.339 211.946 456.899 217.281 442.027 221.223C425.879 225.511 411.888 225.619 393.709 221.601C389.399 220.64 385.021 219.344 380.372 217.962C374.82 216.309 369.077 214.614 363.333 213.49C354.363 211.763 346.047 211.86 337.911 213.75C324.415 216.914 319.597 223.869 314.497 231.245C311.8 235.144 309.002 239.162 304.793 242.801H305.865C309.814 239.248 312.5 235.382 315.095 231.634C320.116 224.377 324.856 217.53 338.08 214.43C346.103 212.551 354.318 212.465 363.187 214.171C368.896 215.283 374.617 216.979 380.157 218.62C384.818 220.003 389.218 221.31 393.551 222.271C411.854 226.31 425.947 226.202 442.218 221.882C457.192 217.908 465.689 212.54 474.682 206.87C479.094 204.084 483.653 201.2 489.193 198.338C489.599 198.122 490.017 197.906 490.434 197.69C490.874 197.464 491.314 197.226 491.754 196.999C499.066 193.219 506.051 188.478 511.422 183.651C513.972 181.361 515.958 179.223 517.888 177.16C519.546 175.378 521.137 173.672 522.988 171.976V171.036H522.999Z" fill="white"/>
<path opacity="0.7" d="M5.62634 242.801C4.00148 239.529 2.51202 236.17 1 232.671V234.453C2.2525 237.315 3.49371 240.08 4.83648 242.79H5.62634V242.801Z" fill="white"/>
<path opacity="0.7" d="M523 161.803C522.109 162.224 521.217 162.656 520.36 163.109C518.351 164.168 516.399 165.313 514.221 166.695C510.599 168.995 507.586 171.328 504.404 173.79C502.622 175.173 500.771 176.609 498.729 178.1C493.617 181.836 487.298 185.897 479.433 190.508C478.79 190.886 478.17 191.264 477.549 191.642L477.03 191.956C471.839 195.098 467.619 198.587 463.546 201.967C455.354 208.749 447.613 215.164 433.26 217.67C416.921 220.532 402.782 217.638 385.27 212.032C382.415 211.114 379.549 210.11 376.514 209.041C369.935 206.73 363.142 204.332 356.259 202.842C347.526 200.963 339.48 200.909 331.751 202.637C318.064 205.704 314.092 212.875 309.894 220.456C307.446 224.873 304.918 229.431 300.337 233.481C299.31 234.388 298.193 235.198 297.008 235.889C292.788 238.373 288.083 239.81 283.535 241.192C281.809 241.721 280.105 242.24 278.469 242.812H280.658C281.673 242.488 282.7 242.175 283.75 241.851C288.342 240.458 293.093 239.01 297.38 236.483C298.599 235.77 299.75 234.928 300.811 233.999C305.493 229.874 308.044 225.262 310.515 220.791C314.633 213.35 318.538 206.319 331.898 203.317C339.571 201.6 347.458 201.665 356.09 203.522C362.928 205.002 369.71 207.389 376.254 209.7C379.29 210.769 382.167 211.784 385.022 212.702C402.647 218.34 416.876 221.255 433.373 218.361C447.94 215.812 455.737 209.343 463.997 202.496C468.048 199.138 472.246 195.66 477.391 192.55L477.91 192.236C478.519 191.858 479.151 191.48 479.783 191.113C487.671 186.491 494.001 182.419 499.146 178.661C501.2 177.16 503.05 175.724 504.833 174.341C508.004 171.879 510.994 169.557 514.594 167.289C516.76 165.917 518.69 164.783 520.687 163.736C521.432 163.347 522.21 162.969 522.978 162.602V161.803H523Z" fill="white"/>
<path opacity="0.7" d="M11.7309 242.801C7.96211 237.434 4.78007 231.861 1.57547 226.018C1.38365 225.673 1.19182 225.305 1 224.96V226.439C4.11433 232.131 7.21737 237.563 10.862 242.801H11.7309Z" fill="white"/>
<path opacity="0.7" d="M523 155.938C518.836 157.418 514.559 158.951 510.497 160.679C508.477 161.533 506.367 162.494 504.031 163.595C497.848 166.533 492.443 169.622 486.519 173.056C480.042 176.825 473.34 180.713 467.438 184.633C466.671 185.141 465.926 185.67 465.193 186.189C460.442 189.558 456.639 193.608 452.961 197.518C445.502 205.466 438.439 212.972 424.481 214.128C407.273 215.553 392.48 209.203 376.818 202.475L374.493 201.47C366.335 197.939 357.906 194.299 349.173 192.193C340.653 190.152 332.958 189.936 325.567 191.524C311.699 194.472 308.596 201.838 305.301 209.635C303.383 214.171 301.408 218.858 297.211 223.027C296.297 223.934 295.259 224.765 294.13 225.5C290.553 227.822 286.344 229.258 282.271 230.651C276.2 232.725 270.468 234.68 266.925 239.302C266.045 240.436 265.221 241.613 264.42 242.801H265.278C266 241.754 266.733 240.717 267.512 239.702C270.919 235.241 276.55 233.319 282.519 231.289C286.638 229.885 290.892 228.427 294.548 226.061C295.721 225.305 296.793 224.441 297.741 223.491C302.029 219.225 304.037 214.473 305.978 209.873C309.194 202.248 312.241 195.044 325.736 192.182C333.003 190.627 340.597 190.833 349.003 192.852C357.681 194.936 366.076 198.576 374.211 202.086L376.536 203.09C392.288 209.862 407.16 216.255 424.56 214.808C438.811 213.631 445.942 206.028 453.503 197.982C457.159 194.094 460.939 190.066 465.633 186.75C466.355 186.232 467.1 185.724 467.867 185.217C473.746 181.318 480.437 177.43 486.914 173.672C492.827 170.237 498.22 167.159 504.37 164.233C506.694 163.131 508.793 162.181 510.813 161.327C514.774 159.643 518.949 158.142 523.022 156.694V155.938H523Z" fill="white"/>
<path opacity="0.7" d="M17.4066 242.801H18.377C12.7238 236.807 8.40216 230.835 4.7575 225.338C3.47115 223.394 2.21865 221.439 1 219.463V220.802C2.02682 222.444 3.07621 224.085 4.14817 225.705C7.72513 231.105 11.934 236.937 17.4066 242.801Z" fill="white"/>
<path opacity="0.7" d="M522.999 151.1C519.129 152.374 515.089 153.66 510.948 154.966C490.558 161.403 467.46 168.693 453.356 180.411C449.056 183.985 445.683 188.554 442.41 192.982C435.674 202.108 429.31 210.726 415.701 210.564C399.848 210.38 385.506 202.41 371.627 194.699C370.532 194.094 369.449 193.489 368.355 192.885C353.674 184.785 336.41 176.976 319.518 180.357C319.473 180.368 319.428 180.378 319.383 180.389C305.368 183.24 303.112 190.789 300.731 198.77C299.343 203.436 297.899 208.253 294.085 212.562C290.756 216.32 285.689 218.242 280.792 220.111C274.959 222.325 268.933 224.625 265.661 230.014C263.291 233.902 261.362 238.136 259.5 242.24C259.409 242.423 259.331 242.618 259.24 242.801H260.019C260.064 242.704 260.109 242.607 260.154 242.51C262.016 238.427 263.934 234.205 266.281 230.349C269.441 225.165 275.342 222.919 281.063 220.748C286.039 218.858 291.196 216.892 294.638 213.005C298.553 208.587 300.009 203.695 301.419 198.954C303.845 190.833 305.933 183.823 319.53 181.059C319.575 181.048 319.62 181.037 319.665 181.026C336.32 177.7 353.437 185.454 367.994 193.479C369.077 194.073 370.171 194.688 371.266 195.293C385.224 203.047 399.645 211.061 415.69 211.244C429.671 211.395 436.148 202.648 442.986 193.371C446.224 188.975 449.587 184.428 453.818 180.918C467.81 169.287 490.852 162.019 511.174 155.604C515.236 154.318 519.197 153.066 522.999 151.813V151.1Z" fill="white"/>
<path opacity="0.7" d="M24.6847 242.801H25.6777C15.3868 234.41 7.4769 225.014 1 215.078V216.158C7.29636 225.64 14.9468 234.691 24.6847 242.801Z" fill="white"/>
<path opacity="0.7" d="M523 141.963C517.347 143.951 511.208 145.884 504.777 147.903C484.985 154.124 462.564 161.165 448.549 172.343C444.408 175.659 441.091 179.86 437.886 183.931C431.206 192.398 424.899 200.39 411.945 200.455C396.926 200.531 383.295 193.824 371.255 187.895L368.547 186.556C366.81 185.692 365.083 184.839 363.368 184.018C350.019 177.592 334.222 171.404 318.301 174.287C316.89 174.546 315.502 174.849 314.159 175.194C300.574 178.693 297.583 185.541 294.684 192.161C293.002 196.016 291.265 199.991 287.439 203.328C284.314 206.049 279.868 207.291 275.151 208.609C268.934 210.348 262.502 212.14 258.722 217.605C255.461 222.292 253.17 227.757 250.959 233.038C249.785 235.846 248.567 238.751 247.235 241.44C247.01 241.905 246.773 242.337 246.547 242.779H247.348C247.529 242.434 247.709 242.099 247.89 241.732C249.232 239.021 250.451 236.105 251.625 233.286C253.825 228.038 256.093 222.605 259.32 217.972C262.954 212.724 269.261 210.963 275.354 209.257C280.139 207.918 284.664 206.654 287.925 203.825C291.863 200.39 293.634 196.34 295.349 192.409C298.306 185.638 301.104 179.244 314.351 175.842C315.671 175.497 317.048 175.205 318.447 174.946C334.154 172.106 349.816 178.24 363.063 184.612C364.779 185.433 366.494 186.286 368.231 187.15L370.939 188.489C383.047 194.45 396.757 201.2 411.956 201.125C425.271 201.049 431.68 192.928 438.473 184.32C441.655 180.281 444.95 176.112 449.023 172.84C462.925 161.749 485.29 154.718 505.014 148.53C511.355 146.542 517.414 144.631 523.011 142.665V141.963H523Z" fill="white"/>
<path opacity="0.7" d="M30.7667 242.801H32.0079C21.356 235.652 12.1484 226.353 4.10304 214.624C3.0198 213.059 1.99297 211.471 1 209.873V211.201C1.81243 212.475 2.63615 213.739 3.505 215.002C11.3924 226.504 20.3968 235.684 30.7667 242.801Z" fill="white"/>
<path opacity="0.7" d="M522.999 132.697C521.803 133.151 520.64 133.583 519.512 134.004C513.216 136.304 506.186 138.497 498.75 140.808C479.511 146.802 457.699 153.595 443.764 164.287C439.769 167.354 436.508 171.199 433.349 174.924C426.737 182.722 420.497 190.087 408.209 190.357C393.777 190.671 380.541 184.849 367.745 179.212L364.924 177.97C362.678 176.987 360.568 176.058 358.413 175.162C345.087 169.622 329.245 164.535 313.018 168.844C311.619 169.211 310.254 169.611 308.956 170.021C296.048 174.06 292.245 180.011 288.894 185.26C286.784 188.554 284.798 191.675 280.826 194.126C277.971 195.887 274.022 196.567 269.835 197.291C263.449 198.403 256.204 199.656 251.815 205.239C247.708 210.467 245.282 217.011 242.946 223.329C242.156 225.478 241.4 227.498 240.588 229.485C238.726 234.021 236.796 237.434 234.54 240.209C233.772 241.138 232.982 242.002 232.17 242.812H233.152C233.817 242.121 234.472 241.408 235.104 240.63C237.406 237.801 239.358 234.334 241.253 229.733C242.077 227.746 242.822 225.705 243.623 223.556C245.947 217.281 248.351 210.801 252.391 205.65C256.611 200.282 263.404 199.105 269.971 197.96C274.225 197.226 278.242 196.524 281.221 194.699C285.339 192.172 287.37 188.986 289.514 185.616C292.967 180.216 296.533 174.633 309.182 170.669C310.468 170.27 311.822 169.87 313.21 169.503C329.233 165.248 344.906 170.291 358.12 175.788C360.264 176.674 362.374 177.603 364.608 178.596L367.429 179.838C380.304 185.508 393.619 191.362 408.209 191.038C420.846 190.768 427.177 183.273 433.891 175.346C437.027 171.652 440.266 167.829 444.204 164.816C458.038 154.21 479.782 147.428 498.964 141.456C506.412 139.134 513.441 136.942 519.76 134.641C520.81 134.252 521.893 133.853 522.999 133.432V132.697Z" fill="white"/>
<path opacity="0.7" d="M39.568 242.801H41.2493C26.6255 236.17 14.4954 225.403 4.23845 209.883C3.09879 208.177 2.02683 206.46 1 204.721V206.093C1.84629 207.486 2.71514 208.868 3.62913 210.251C13.6379 225.403 25.4294 236.073 39.568 242.801Z" fill="white"/>
<path opacity="0.7" d="M40.8314 237.747C44.8372 239.291 47.8161 240.522 50.2082 241.505C51.3705 241.991 52.4199 242.412 53.4016 242.801H55.2972C53.8529 242.25 52.3296 241.624 50.4903 240.868C48.0982 239.885 45.108 238.654 41.0909 237.099C26.4897 231.461 14.4724 221.007 4.35086 205.142C3.15477 203.274 2.03768 201.395 0.988281 199.494V200.92C1.86842 202.453 2.77112 203.976 3.74153 205.499C13.9534 221.504 26.0835 232.045 40.8314 237.747Z" fill="white"/>
<path opacity="0.7" d="M522.998 123.107C519.139 124.986 515.032 126.433 511.376 127.729C505.61 129.76 499.291 131.714 492.589 133.788C473.948 139.555 452.824 146.078 438.968 156.219C435.131 159.027 431.927 162.515 428.835 165.896C422.279 173.045 416.084 179.795 404.451 180.249C390.527 180.789 378.284 175.961 365.33 170.853C364.168 170.389 362.994 169.935 361.832 169.481L361.2 169.233C358.514 168.185 355.987 167.203 353.437 166.306C340.923 161.868 324.415 157.526 307.726 163.412C306.395 163.876 305.074 164.362 303.743 164.848C292.042 169.201 287.438 174.05 283.737 177.959C281.017 180.832 278.659 183.316 274.213 184.925C271.742 185.821 268.413 186.016 264.881 186.221C257.908 186.631 250.009 187.085 244.887 192.874C239.888 198.522 237.507 206.125 235.194 213.48C234.765 214.851 234.336 216.201 233.907 217.508C232.824 220.78 231.267 225.003 228.785 228.664C226.099 232.628 222.962 235.533 219.182 237.563C213.642 240.533 206.725 241.397 200.124 242.024C197.291 242.294 194.741 242.38 192.485 242.466C191.706 242.488 190.973 242.52 190.284 242.553C189.393 242.596 188.58 242.607 187.802 242.628C186.47 242.661 185.263 242.693 184.078 242.823H198.894C199.323 242.79 199.74 242.758 200.191 242.715C206.871 242.078 213.867 241.203 219.532 238.168C223.413 236.084 226.629 233.103 229.383 229.042C231.91 225.305 233.49 221.029 234.584 217.713C235.013 216.396 235.442 215.046 235.871 213.674C238.15 206.384 240.52 198.846 245.417 193.306C250.337 187.744 258.077 187.29 264.915 186.891C268.504 186.685 271.877 186.48 274.45 185.551C279.054 183.888 281.469 181.35 284.256 178.402C288.092 174.352 292.436 169.773 303.991 165.475C305.311 164.978 306.643 164.503 307.963 164.038C324.426 158.239 340.776 162.537 353.177 166.933C355.705 167.829 358.244 168.812 360.918 169.859L361.55 170.108C362.723 170.561 363.886 171.026 365.048 171.479C377.505 176.393 390.391 181.48 404.473 180.929C416.423 180.465 422.708 173.607 429.365 166.339C432.435 162.991 435.617 159.524 439.397 156.759C453.152 146.683 474.219 140.171 492.803 134.436C499.506 132.362 505.836 130.408 511.613 128.367C515.19 127.103 519.185 125.688 522.987 123.874V123.107H522.998Z" fill="white"/>
<path opacity="0.7" d="M522.998 112.07C517.65 116.584 510.033 119.154 503.24 121.444C498.197 123.139 492.769 124.803 487.037 126.563C468.802 132.136 448.13 138.464 434.184 148.152C430.505 150.7 427.379 153.843 424.355 156.867C417.856 163.379 411.706 169.525 400.716 170.14C387.198 170.896 375.305 166.684 362.712 162.224C360.85 161.565 358.988 160.906 357.115 160.258C353.888 159.157 351.203 158.25 348.472 157.429C329.921 151.921 315.726 152.072 302.445 157.947C301.148 158.52 299.839 159.092 298.541 159.653C289.153 163.714 284.233 167.246 280.273 170.075C276.052 173.088 273.277 175.086 267.635 175.702C265.66 175.918 263.099 175.734 260.39 175.551C253.101 175.032 244.018 174.395 237.981 180.475C232.034 186.459 229.766 195.552 227.758 203.565L227.272 205.509C226.291 209.354 225.106 213.426 223.075 217.108C220.694 221.428 217.884 224.495 214.262 226.774C208.981 230.079 202.132 231.224 195.509 232.336L195.305 232.369C194.234 232.552 193.195 232.714 192.214 232.865C189.686 233.265 187.508 233.61 185.692 234.053L185.285 234.15C180.659 235.274 178.549 235.792 174.115 239.604C173.72 239.95 173.302 240.317 172.862 240.695C172.185 241.3 171.452 241.948 170.639 242.618C170.571 242.672 170.504 242.736 170.447 242.79H171.519C172.174 242.24 172.783 241.7 173.347 241.203C173.776 240.825 174.193 240.458 174.588 240.112C178.888 236.408 180.806 235.943 185.455 234.809L185.861 234.712C187.655 234.269 189.822 233.934 192.327 233.535C193.308 233.373 194.346 233.211 195.43 233.038L195.633 233.006C202.324 231.883 209.252 230.716 214.646 227.336C218.381 225.003 221.258 221.85 223.707 217.422C225.772 213.674 226.979 209.559 227.961 205.661L228.446 203.717C230.432 195.779 232.689 186.793 238.5 180.94C244.3 175.097 253.191 175.724 260.334 176.22C263.087 176.415 265.683 176.598 267.714 176.372C273.547 175.724 276.391 173.693 280.701 170.604C284.628 167.797 289.514 164.297 298.834 160.269C300.143 159.707 301.441 159.135 302.75 158.563C315.862 152.774 329.899 152.623 348.269 158.077C350.988 158.887 353.674 159.794 356.89 160.895C358.763 161.543 360.624 162.202 362.475 162.861C375.135 167.343 387.096 171.587 400.772 170.82C412.045 170.194 418.285 163.952 424.897 157.342C427.899 154.329 431.013 151.23 434.635 148.702C448.491 139.069 469.096 132.773 487.285 127.211C493.029 125.451 498.456 123.798 503.511 122.092C510.169 119.845 517.605 117.329 523.021 112.966V112.07H522.998Z" fill="white"/>
<path opacity="0.7" d="M39.1265 231.332C49.7219 235.025 52.6557 235.133 57.1128 235.284C58.6474 235.338 60.3964 235.392 62.6983 235.619C64.8197 235.824 67.178 236.235 69.6717 236.656C70.8791 236.861 72.1203 237.077 73.4066 237.282C75.9229 237.682 78.4392 238.049 80.9104 238.416C87.6694 239.421 94.056 240.36 99.3594 241.602C100.725 241.916 102.068 242.337 103.399 242.801H105.385C103.455 242.045 101.515 241.397 99.5399 240.933C94.2027 239.68 87.8048 238.74 81.0345 237.736C78.5633 237.369 76.0583 237.002 73.5421 236.602C72.267 236.397 71.0258 236.181 69.8184 235.976C67.3134 235.544 64.9438 235.133 62.7886 234.928C60.4641 234.701 58.7039 234.647 57.158 234.593C52.7686 234.442 49.8686 234.345 39.386 230.684C25.5746 225.867 13.8394 215.683 4.50774 200.412C3.25524 198.349 2.09301 196.276 1.00977 194.191V195.703C1.91247 197.399 2.86031 199.073 3.88714 200.747C13.2865 216.169 25.1458 226.461 39.1265 231.332Z" fill="white"/>
<path opacity="0.7" d="M522.999 96.1399C521.216 99.3582 519.253 102.404 516.195 105.201C515.913 105.46 515.62 105.719 515.315 105.979C510 110.396 502.44 112.826 495.117 115.158C490.998 116.476 486.677 117.772 482.107 119.154C464.075 124.587 443.629 130.742 429.4 140.073C425.902 142.374 422.844 145.149 419.899 147.828C413.434 153.703 407.329 159.254 396.97 160.021C383.78 160.993 372.18 157.288 359.903 153.379C357.455 152.601 354.927 151.791 352.411 151.035C349.059 150.031 346.261 149.232 343.508 148.562C324.991 144.059 310.695 145.268 297.165 152.493C295.935 153.152 294.683 153.8 293.34 154.47C288.082 157.083 284.087 159.308 280.871 161.101C272.33 165.863 269.136 167.645 261.068 166.522C259.726 166.339 258.067 165.971 256.329 165.593C248.701 163.919 238.264 161.63 231.076 168.099C224.103 174.374 222.173 185.001 220.616 193.532C219.928 197.323 219.047 201.686 217.344 205.563C215.313 210.186 212.762 213.501 209.31 215.996C204.638 219.355 198.387 220.845 192.339 222.282L190.466 222.724C186.731 223.632 183.447 224.463 181.066 225.597C176.823 227.627 175.605 229.042 172.355 232.822L171.622 233.675C170.708 234.734 169.703 235.868 168.507 237.034L167.052 238.46C165.585 239.907 164.084 241.376 162.516 242.812H163.554C164.93 241.527 166.262 240.22 167.571 238.946L169.026 237.52C170.245 236.332 171.272 235.187 172.186 234.118L172.919 233.265C176.192 229.463 177.286 228.178 181.393 226.223C183.707 225.122 186.956 224.29 190.646 223.394L192.508 222.951C198.624 221.493 204.943 219.992 209.738 216.547C213.304 213.987 215.933 210.575 218.009 205.833C219.736 201.892 220.627 197.474 221.327 193.651C222.861 185.217 224.78 174.719 231.572 168.596C238.489 162.375 248.713 164.621 256.182 166.263C257.943 166.652 259.613 167.019 260.989 167.203C269.306 168.358 272.803 166.414 281.255 161.705C284.46 159.924 288.443 157.699 293.69 155.096C295.044 154.426 296.296 153.778 297.538 153.12C310.898 145.992 325.036 144.804 343.361 149.253C346.103 149.923 348.89 150.722 352.23 151.716C354.746 152.472 357.274 153.282 359.711 154.059C372.067 158.001 383.723 161.716 397.061 160.733C407.667 159.945 413.874 154.318 420.429 148.357C423.363 145.689 426.387 142.935 429.84 140.667C443.979 131.39 464.369 125.245 482.355 119.835C486.936 118.452 491.258 117.156 495.376 115.839C502.418 113.582 510.395 111.033 515.811 106.518C516.127 106.259 516.432 105.989 516.725 105.719C519.467 103.203 521.386 100.417 523.033 97.5871V96.1399H522.999Z" fill="white"/>
<path opacity="0.7" d="M37.4113 224.928C47.7134 228.157 50.6923 227.228 54.1565 226.148C55.9055 225.597 57.7221 225.036 60.7123 224.96C63.9169 224.874 67.6632 225.522 71.5335 226.256C80.0979 227.865 89.7456 230.338 97.3508 232.898C103.06 234.82 108.443 238.146 114.119 241.667C114.728 242.045 115.349 242.423 115.969 242.812H117.301C116.364 242.24 115.439 241.667 114.513 241.095C108.793 237.542 103.388 234.194 97.5878 232.25C89.9487 229.69 80.2559 227.195 71.6689 225.586C67.7534 224.841 63.9621 224.193 60.6898 224.28C57.598 224.366 55.6459 224.971 53.9308 225.511C50.5908 226.547 47.7134 227.455 37.637 224.29C24.3447 220.122 13.2414 210.499 4.63187 195.692C3.30038 193.392 2.10429 191.081 1.00977 188.77V190.411C1.93504 192.301 2.92801 194.18 3.99997 196.038C12.6998 210.974 23.9384 220.694 37.4113 224.928Z" fill="white"/>
<path opacity="0.7" d="M522.999 82.4351C521.916 83.5042 520.889 84.6274 519.93 85.8154C518.779 87.241 517.718 88.6773 516.692 90.0705C514.006 93.7316 511.456 97.1876 507.326 100.32C507.033 100.536 506.739 100.752 506.435 100.968C501.222 104.596 494.158 106.724 487.32 108.787L486.993 108.884C484.217 109.715 481.351 110.569 478.406 111.433C460.171 116.789 439.51 122.869 424.616 132.017C421.31 134.047 418.342 136.466 415.487 138.799C409.044 144.059 402.962 149.027 393.224 149.912C380.316 151.1 368.964 147.839 356.936 144.393C353.923 143.529 350.808 142.633 347.683 141.823C344.952 141.121 341.736 140.311 338.52 139.696C320.015 136.142 305.628 138.4 291.862 147.039C290.632 147.806 289.368 148.562 288.104 149.275C269.746 159.632 265.92 161.792 254.456 157.342C253.903 157.126 253.294 156.878 252.651 156.63C245.237 153.66 232.825 148.681 224.125 155.701C217.095 161.371 215.064 171.469 213.925 181.534C213.406 186.081 212.875 190.152 211.589 194.008C209.942 198.943 207.628 202.496 204.333 205.207C200.125 208.652 194.313 210.423 188.683 212.13C187.645 212.443 186.607 212.756 185.602 213.08C182.217 214.16 178.753 215.391 176.429 217.152C173.687 219.225 172.761 221.018 171.486 223.502C170.866 224.712 170.155 226.094 169.105 227.746C168.214 229.139 167.311 230.349 166.33 231.451C162.843 235.371 158.363 239.82 152.992 242.823H154.38C159.379 239.799 163.565 235.608 166.871 231.893C167.876 230.759 168.812 229.528 169.715 228.103C170.787 226.418 171.498 225.036 172.13 223.804C173.359 221.407 174.251 219.679 176.869 217.692C179.103 215.996 182.488 214.786 185.817 213.739C186.821 213.415 187.848 213.113 188.886 212.799C194.573 211.071 200.463 209.289 204.785 205.747C208.193 202.95 210.562 199.3 212.255 194.234C213.564 190.325 214.105 186.21 214.624 181.62C215.753 171.695 217.739 161.76 224.577 156.241C232.938 149.491 245.102 154.362 252.357 157.278C253.001 157.537 253.61 157.774 254.174 158.001C265.966 162.58 269.847 160.399 288.454 149.891C289.729 149.178 291.004 148.411 292.234 147.633C305.831 139.102 320.049 136.866 338.362 140.387C341.556 141.002 344.76 141.802 347.48 142.503C350.594 143.313 353.708 144.21 356.71 145.074C368.795 148.541 380.214 151.824 393.269 150.625C403.222 149.718 409.394 144.674 415.927 139.35C418.771 137.028 421.716 134.63 424.977 132.622C439.793 123.528 460.408 117.459 478.586 112.113C481.531 111.249 484.409 110.407 487.173 109.564L487.5 109.467C494.384 107.393 501.515 105.244 506.818 101.551C507.134 101.335 507.439 101.108 507.732 100.881C511.952 97.6844 514.525 94.196 517.245 90.4917C518.26 89.1093 519.321 87.673 520.46 86.2582C521.25 85.2862 522.085 84.3574 522.965 83.4502V82.4351H522.999Z" fill="white"/>
<path opacity="0.7" d="M35.6962 218.512C46.5286 221.547 49.3383 219.43 52.3059 217.206C53.9195 215.996 55.5782 214.732 58.7264 214.279C62.2582 213.76 66.4333 214.506 69.6717 215.218C76.9723 216.806 85.6157 219.819 95.3649 224.171C100.522 226.483 105.351 229.874 110.474 233.47C115.202 236.796 120.031 240.188 125.301 242.801H126.903C121.182 240.144 115.969 236.483 110.891 232.909C105.746 229.291 100.894 225.878 95.6696 223.534C85.8752 219.16 77.1867 216.126 69.8297 214.538C66.5348 213.814 62.2695 213.058 58.6249 213.588C55.3074 214.074 53.5584 215.391 51.8771 216.655C49.0562 218.772 46.3932 220.78 35.9106 217.843C19.9553 213.382 10.1609 200.747 4.76727 190.93C3.34551 188.338 2.11558 185.713 1.00977 183.078V184.925C1.94632 187.053 2.97315 189.159 4.12409 191.254C9.57417 201.19 19.4926 213.987 35.6962 218.512Z" fill="white"/>
<path opacity="0.7" d="M522.999 76.3008C518.881 78.5363 515.337 81.0311 512.223 83.8822C511.185 84.8326 510.192 85.783 509.222 86.7118C505.983 89.8113 502.925 92.7489 498.457 95.438C498.164 95.6108 497.87 95.7944 497.554 95.9672C492.522 98.7968 486.112 100.59 479.906 102.328L477.729 102.944C459.28 108.117 436.328 114.564 419.82 123.971C416.717 125.731 413.874 127.794 411.132 129.781C404.689 134.436 398.607 138.821 389.467 139.836C376.784 141.24 365.635 138.356 353.832 135.311C350.301 134.404 346.656 133.453 342.966 132.633C339.22 131.812 336.23 131.239 333.555 130.861C315.027 128.194 300.539 131.509 286.581 141.629C285.362 142.514 284.121 143.357 282.902 144.134C264.589 155.766 259.263 155.485 247.855 148.227C234.472 139.706 224.452 138.119 217.208 143.357C209.151 149.189 207.673 161.112 207.267 169.579L207.256 169.73C207.053 173.996 206.838 178.413 205.857 182.484C204.593 187.722 202.539 191.524 199.38 194.451C195.532 198.014 190.048 200.012 184.745 201.956C183.391 202.453 182.048 202.939 180.761 203.447C177.579 204.7 174.025 206.309 171.825 208.717C169.636 211.125 169.105 213.35 168.496 215.942C168.09 217.648 167.638 219.582 166.612 221.817C165.935 223.297 165.133 224.614 164.163 225.856C157.099 234.993 144.71 243.276 131.101 239.097C121.939 236.278 114.446 230.327 107.202 224.56C102.655 220.942 98.3558 217.53 93.7181 214.884C86.5191 210.78 77.0858 205.79 67.9572 203.544C63.1616 202.356 59.5169 202.172 56.5154 202.972C53.0852 203.879 51.528 205.92 50.0273 207.885C47.5561 211.125 45.2204 214.193 34.1397 211.471C17.9248 207.486 8.84137 193.954 4.85819 186.232C3.31231 183.24 2.03724 180.216 0.976562 177.171V179.223C1.91312 181.674 2.96251 184.115 4.21501 186.534C8.24333 194.353 17.4735 208.08 33.9591 212.13C45.5025 214.97 48.0977 211.568 50.6027 208.285C52.0358 206.406 53.514 204.473 56.696 203.63C59.5846 202.874 63.0939 203.047 67.7654 204.214C76.8037 206.438 86.1806 211.406 93.3345 215.478C97.9157 218.091 102.192 221.493 106.728 225.09C114.029 230.889 121.578 236.894 130.864 239.745C144.834 244.043 157.517 235.598 164.727 226.267C165.72 224.982 166.555 223.621 167.255 222.098C168.315 219.808 168.778 217.832 169.184 216.104C169.771 213.609 170.279 211.449 172.344 209.181C174.442 206.881 177.895 205.315 181.01 204.095C182.296 203.587 183.628 203.101 184.982 202.604C190.353 200.639 195.904 198.608 199.854 194.947C203.115 191.923 205.247 188.014 206.534 182.646C207.527 178.51 207.741 174.061 207.955 169.762L207.967 169.611C208.373 161.284 209.806 149.556 217.626 143.908C224.588 138.864 234.337 140.473 247.437 148.8C259.646 156.576 265.683 155.884 283.286 144.707C284.527 143.918 285.78 143.076 287.01 142.18C300.799 132.179 315.118 128.907 333.443 131.542C336.094 131.92 339.073 132.481 342.797 133.302C346.475 134.123 350.12 135.062 353.641 135.97C365.511 139.037 376.716 141.931 389.546 140.516C398.889 139.48 405.038 135.03 411.56 130.321C414.291 128.345 417.123 126.304 420.192 124.554C436.622 115.191 459.528 108.765 477.932 103.592L480.109 102.976C486.349 101.227 492.804 99.4231 497.915 96.5504C498.231 96.3776 498.536 96.194 498.829 96.0104C503.377 93.2781 506.457 90.3189 509.729 87.187C510.7 86.2582 511.682 85.3186 512.72 84.3682C515.699 81.6359 519.095 79.2383 522.999 77.0784V76.3008Z" fill="white"/>
<path opacity="0.7" d="M523 72.9852C521.352 73.644 519.739 74.2812 518.17 74.9292C512.878 77.1432 508.421 79.4327 504.528 81.9383L503.039 82.8994C498.672 85.729 494.892 88.1697 489.6 90.5457C489.306 90.6753 489.001 90.8157 488.697 90.9453C484.014 92.9432 478.429 94.3688 473.035 95.7404L470.733 96.3344C455.24 100.33 432.616 106.713 415.036 115.893C412.193 117.372 409.518 119.057 406.923 120.688C400.435 124.749 394.308 128.593 385.721 129.727C373.218 131.369 362.239 128.809 350.617 126.109C346.611 125.181 342.47 124.209 338.261 123.431C334.583 122.751 331.423 122.286 328.591 122.005C309.758 120.148 295.62 124.381 281.301 136.186C280.104 137.168 278.886 138.097 277.69 138.95C260.448 151.176 253.147 149.61 241.22 139.069C236.91 135.257 221.936 123.399 210.28 130.969C203.679 135.257 200.418 144.21 200.599 157.58L200.61 158.498C200.666 162.634 200.734 166.922 200.125 170.929C199.256 176.469 197.439 180.519 194.415 183.661C190.872 187.344 185.636 189.58 180.581 191.74C179.024 192.399 177.411 193.09 175.91 193.802C171.408 195.919 168.812 197.863 167.233 200.272C165.371 203.101 165.258 205.866 165.145 208.782C165.055 210.996 164.965 213.285 164.13 215.877C163.633 217.432 162.911 218.912 162.008 220.262C155.667 229.755 141.652 237.347 128.179 232.714C118.475 229.377 110.836 222.53 103.457 215.91C99.5185 212.378 95.7948 209.03 91.7778 206.201C84.6238 201.146 75.247 195.034 66.1071 192.517C61.3566 191.2 57.5314 191.135 54.4509 192.312C50.9642 193.64 49.6215 196.384 48.3238 199.03C46.1799 203.404 44.1714 207.551 32.4137 205.056C21.1637 202.68 10.918 193.867 5.00531 181.502C3.25633 177.84 1.96997 174.147 0.988281 170.453V173.088C1.8797 176.004 2.97423 178.91 4.35085 181.793C10.3538 194.364 20.7914 203.306 32.267 205.736C44.5889 208.339 46.8231 203.76 48.9896 199.332C50.2759 196.686 51.4946 194.191 54.7217 192.96C57.6555 191.837 61.3228 191.913 65.9153 193.187C74.9423 195.671 84.2515 201.751 91.3603 206.762C95.3322 209.57 99.0445 212.897 102.971 216.417C110.407 223.081 118.103 229.982 127.942 233.373C141.912 238.179 155.96 230.608 162.617 220.64C163.554 219.236 164.299 217.702 164.818 216.082C165.675 213.404 165.766 211.071 165.867 208.814C165.991 205.866 166.093 203.328 167.853 200.65C169.354 198.349 171.87 196.492 176.237 194.429C177.726 193.727 179.261 193.068 180.886 192.377C186.009 190.195 191.312 187.927 194.957 184.137C198.082 180.886 199.956 176.728 200.847 171.037C201.468 166.965 201.4 162.656 201.343 158.487L201.332 157.569C201.152 144.447 204.3 135.689 210.698 131.531C221.914 124.252 236.526 135.84 240.747 139.566C252.448 149.912 260.222 152.191 278.13 139.49C279.348 138.626 280.567 137.687 281.786 136.693C295.936 125.029 309.916 120.839 328.523 122.675C331.333 122.956 334.47 123.409 338.126 124.09C342.323 124.867 346.453 125.829 350.459 126.768C362.149 129.49 373.196 132.06 385.834 130.408C394.601 129.252 401.067 125.191 407.329 121.271C409.913 119.651 412.576 117.977 415.397 116.508C432.91 107.372 455.477 101 470.936 97.0148L473.227 96.4316C478.643 95.0492 484.251 93.6128 488.99 91.6041C489.306 91.4745 489.611 91.3341 489.915 91.2045C495.264 88.8069 499.247 86.2366 503.456 83.5042L504.945 82.5431C508.805 80.0591 513.228 77.7911 518.475 75.588C519.953 74.9724 521.465 74.3676 523.011 73.752V72.9852H523Z" fill="white"/>
<path opacity="0.7" d="M523 70.2312C519.051 71.9808 514.842 73.5143 510.656 74.9615C505.871 76.6139 501.211 78.2446 496.844 80.0158C491.281 82.2622 486.463 83.9577 480.742 85.6749L479.828 85.9449C475.992 87.0573 471.76 87.9969 467.664 88.9148C465.972 89.2928 464.279 89.6708 462.609 90.0596C443.934 94.4119 425.339 100.719 410.264 107.825C407.781 108.992 405.355 110.277 403.019 111.519C396.396 115.04 390.145 118.355 381.975 119.608C369.619 121.509 358.764 119.23 347.277 116.811C342.843 115.882 338.25 114.91 333.534 114.197C329.855 113.646 326.605 113.29 323.615 113.128C304.692 112.07 290.463 117.329 276.02 130.721C274.847 131.812 273.662 132.827 272.477 133.756C255.371 147.223 245.96 142.784 234.575 129.9C226.631 120.915 213.7 112.556 203.364 118.582C194.337 123.841 193.265 136.175 193.942 145.581L194.066 147.299C194.371 151.305 194.686 155.442 194.393 159.373C193.953 165.194 192.385 169.481 189.462 172.872C186.167 176.696 181.135 179.147 176.271 181.512C174.534 182.355 172.728 183.229 171.069 184.147C168.079 185.8 164.412 188.154 162.652 191.805C161.049 195.12 161.365 198.349 161.715 201.762C161.975 204.354 162.246 207.043 161.659 209.916C161.32 211.59 160.711 213.177 159.865 214.646C154.2 224.495 138.944 231.537 125.269 226.31C114.955 222.379 107.169 214.506 99.643 206.892C96.4723 203.695 93.2 200.38 89.8487 197.507C79.9753 189.018 71.3658 183.629 64.2683 181.469C59.4614 180.011 55.5798 180.065 52.3977 181.642C48.8772 183.391 47.7601 186.793 46.6768 190.098C44.8714 195.606 43.1789 200.822 30.6877 198.63C17.9257 196.373 9.12434 185.843 5.14116 176.739C2.8844 171.566 1.60933 166.36 1 161.165V165.745C1.73345 169.503 2.85054 173.261 4.47541 177.009C8.5263 186.286 17.5082 197.01 30.5523 199.289C43.6641 201.589 45.5485 195.844 47.3651 190.282C48.4484 186.977 49.4639 183.845 52.725 182.236C55.7264 180.746 59.4388 180.702 64.0539 182.106C71.0611 184.234 79.5804 189.58 89.3747 197.993C92.7035 200.855 95.8178 204.008 99.1239 207.345C106.707 215.013 114.549 222.94 125.009 226.936C139.035 232.282 154.674 225.068 160.497 214.959C161.377 213.426 162.009 211.773 162.37 210.035C162.979 207.065 162.708 204.332 162.437 201.686C162.11 198.371 161.794 195.228 163.318 192.085C164.626 189.375 167.131 187.107 171.442 184.731C173.089 183.823 174.883 182.949 176.61 182.106C181.541 179.709 186.641 177.236 190.038 173.294C193.05 169.795 194.675 165.377 195.127 159.405C195.42 155.42 195.104 151.251 194.799 147.223L194.675 145.517C194.009 136.294 195.036 124.23 203.747 119.143C213.7 113.333 226.281 121.541 234.044 130.321C245.723 143.551 255.382 148.087 272.951 134.263C274.147 133.324 275.343 132.287 276.539 131.196C290.824 117.955 304.895 112.75 323.593 113.798C326.572 113.96 329.787 114.316 333.443 114.867C338.137 115.58 342.707 116.541 347.142 117.47C358.697 119.899 369.619 122.189 382.099 120.277C390.381 119.003 396.983 115.504 403.38 112.113C405.705 110.882 408.12 109.596 410.591 108.441C425.632 101.356 444.16 95.0707 462.79 90.7292C464.46 90.3404 466.152 89.9624 467.833 89.5844C471.941 88.6665 476.195 87.7269 480.043 86.6037L480.968 86.3337C486.723 84.6057 491.552 82.9102 497.138 80.653C501.482 78.8926 506.131 77.2727 510.915 75.6203C515.011 74.2055 519.13 72.7044 523.011 71.0088V70.2312H523Z" fill="white"/>
<path opacity="0.7" d="M14.1213 98.7968C13.8618 101.94 13.1283 105.007 12.3498 108.128C11.2665 112.405 9.86732 116.768 8.38914 121.39C3.37913 136.985 -2.28534 154.664 4.59778 172.257C8.95333 183.37 18.4656 191.47 28.8467 192.885C42.7709 194.785 44.2829 187.906 45.7385 181.242C46.6074 177.29 47.4198 173.553 50.7147 171.555C53.7839 169.687 57.5301 169.535 62.179 171.08C72.2329 174.406 83.1556 184.914 87.3871 189.277C90.0387 192.01 92.6453 195.001 95.1729 197.885C102.902 206.719 110.903 215.867 122.062 220.554C135.163 226.051 152.799 220.597 158.362 209.333C159.186 207.669 159.694 205.888 159.897 204.03C160.247 200.812 159.603 197.723 158.994 194.731C158.204 190.876 157.459 187.236 158.768 183.575C159.897 180.432 162.323 177.819 166.633 175.087C168.382 173.985 170.312 172.937 172.174 171.922C176.969 169.309 181.923 166.609 185.105 162.505C188.016 158.736 189.381 154.07 189.404 147.828C189.404 143.94 188.874 139.933 188.343 136.045C188.23 135.192 188.118 134.35 188.005 133.507C187.192 127.287 186.425 112.221 196.795 106.799C207.571 101.14 219.983 110.979 227.34 121.131C234.742 131.337 241.4 136.434 248.317 137.19C254.365 137.849 260.729 135.192 267.759 129.079C268.898 128.097 270.072 126.963 271.268 125.731C285.598 110.882 299.771 104.672 318.637 104.953C321.774 104.996 325.08 105.233 328.736 105.665C333.882 106.281 338.869 107.231 343.699 108.149C355.152 110.331 365.984 112.383 378.351 110.18C386.509 108.722 393.584 105.655 400.422 102.674C402.194 101.907 403.965 101.13 405.76 100.384C417.799 95.3841 435.955 88.2778 454.63 84.4547C460.069 83.3423 465.733 82.4459 471.082 81.6251L472.007 81.4847C473.925 81.1931 475.787 80.9231 477.615 80.6531C481.609 80.0808 485.378 79.53 489.316 78.774C493.525 77.964 498.422 76.9812 503.342 75.6636C509.661 73.9573 517.131 71.1817 523.01 66.7538V65.8574C517.165 70.4149 509.559 73.2661 503.15 74.994C498.264 76.3116 493.367 77.2836 489.181 78.0936C485.254 78.8496 481.496 79.3896 477.513 79.9619C475.685 80.2211 473.824 80.4911 471.894 80.7935L470.969 80.9339C465.62 81.7547 459.944 82.6511 454.483 83.7743C435.752 87.619 417.54 94.7361 405.477 99.7472C403.672 100.492 401.901 101.27 400.129 102.037C393.02 105.125 386.306 108.052 378.227 109.489C365.995 111.67 355.231 109.629 343.845 107.458C339.005 106.54 334.006 105.59 328.827 104.974C325.137 104.531 321.808 104.305 318.649 104.251C299.556 103.959 285.226 110.245 270.749 125.256C269.564 126.477 268.402 127.589 267.273 128.561C260.402 134.533 254.229 137.136 248.396 136.488C241.704 135.764 235.205 130.753 227.927 120.72C220.401 110.342 207.65 100.298 196.445 106.184C185.692 111.8 186.459 127.211 187.294 133.572C187.407 134.415 187.52 135.257 187.632 136.11C188.151 139.976 188.693 143.962 188.682 147.806C188.67 153.897 187.35 158.433 184.529 162.073C181.426 166.058 176.54 168.725 171.812 171.296C169.939 172.322 167.999 173.369 166.238 174.482C163.237 176.382 159.603 179.104 158.091 183.327C156.715 187.161 157.482 190.897 158.294 194.839C158.904 197.788 159.524 200.822 159.186 203.944C158.994 205.726 158.498 207.432 157.719 209.019C152.314 219.981 135.14 225.262 122.367 219.906C111.354 215.283 103.41 206.201 95.7371 197.431C93.2095 194.537 90.5804 191.545 87.9287 188.791C82.6253 183.327 72.2668 173.672 62.4273 170.41C57.6317 168.823 53.5582 169.006 50.3423 170.961C46.7992 173.121 45.9078 177.171 45.0502 181.091C43.5946 187.733 42.218 193.997 28.9595 192.193C18.8379 190.811 9.54008 182.884 5.28609 171.998C-1.51804 154.632 4.12386 137.071 9.08873 121.574C10.5782 116.951 11.9774 112.577 13.0606 108.279C13.8166 105.255 14.5839 102.037 14.8548 98.84" fill="white"/>
<path opacity="0.7" d="M19.0862 107.2C17.6419 110.505 16.0734 113.777 14.4034 117.244C6.68532 133.314 -1.28105 149.924 4.71065 167.495C8.26505 177.917 17.2808 185.541 27.1316 186.47C41.8569 187.853 42.9966 179.872 44.1024 172.15C44.7569 167.581 45.3775 163.262 48.6949 160.875C58.997 153.488 76.611 169.763 85.3898 180.552C87.3307 182.939 89.2602 185.444 91.1333 187.874C99.0094 198.102 107.145 208.675 119.117 214.172C127.783 218.146 139.642 217.509 147.97 212.627C153.916 209.139 157.279 203.955 157.426 198.026C157.516 194.581 156.523 191.157 155.575 187.842C154.311 183.425 153.104 179.256 154.21 175.044C155.857 168.791 161.623 165.313 167.739 161.631C172.388 158.834 177.195 155.939 180.174 151.673C185.635 143.865 183.739 134.005 181.911 124.479C181.72 123.464 181.528 122.46 181.336 121.466C180.422 116.488 178.346 99.8235 189.833 94.4237C201.32 89.0346 213.608 100.472 220.637 111.909C228.536 124.739 236.345 131.294 244.537 131.942C251.51 132.493 258.732 128.562 266.01 120.257C282.947 100.925 299.207 94.2509 324.042 96.454C329.605 96.9508 334.976 97.8688 340.167 98.7652C351.462 100.709 362.136 102.556 374.266 100.126C374.379 100.104 374.503 100.083 374.616 100.05C386.78 97.5448 398.166 93.3653 409.179 89.3261C425.912 83.1919 443.211 76.8416 463.047 76.604C466.263 76.5608 469.547 76.6472 472.729 76.7336C480.323 76.928 488.188 77.1224 495.759 75.686C505.497 73.8284 517.21 68.0074 520.663 57.1968C523.055 49.7017 520.866 41.7747 518.744 34.096C516.567 26.1798 514.298 18.0043 517.244 10.5093C518.496 7.33413 520.584 4.60178 522.987 2.08543V1.05945C520.301 3.7918 517.954 6.75094 516.578 10.2717C513.554 17.9719 515.844 26.2662 518.056 34.2796C520.143 41.8611 522.31 49.6909 519.974 57.0024C516.668 67.3702 505.52 73.0401 496.03 74.93C495.895 74.9624 495.759 74.984 495.624 75.0056C488.12 76.4312 480.312 76.226 472.751 76.0424C469.569 75.9668 466.275 75.8804 463.047 75.9128C443.086 76.1612 425.732 82.5331 408.942 88.689C397.951 92.7173 386.6 96.886 374.481 99.3916C374.368 99.4132 374.244 99.4348 374.131 99.4672C362.136 101.865 351.53 100.04 340.302 98.0956C335.1 97.1992 329.718 96.2704 324.121 95.7736C299.353 93.5813 282.36 100.547 265.479 119.825C258.359 127.957 251.341 131.802 244.616 131.273C236.683 130.646 229.044 124.199 221.281 111.574C214.093 99.8883 201.466 88.2246 189.539 93.8189C177.601 99.424 179.722 116.498 180.648 121.596C180.828 122.59 181.02 123.605 181.223 124.62C183.029 134.016 184.89 143.725 179.598 151.306C176.698 155.442 171.959 158.304 167.378 161.058C161.138 164.817 155.248 168.359 153.533 174.882C152.382 179.267 153.657 183.716 154.898 188.025C155.835 191.287 156.805 194.667 156.726 198.004C156.579 203.685 153.352 208.675 147.62 212.033C139.484 216.796 127.907 217.422 119.456 213.545C107.653 208.124 99.5623 197.626 91.7426 187.464C89.8695 185.034 87.94 182.518 85.9879 180.131C83.765 177.409 65.7222 155.853 52.4863 158.499C51.0194 158.79 49.6089 159.384 48.2887 160.335C44.723 162.894 44.0573 167.56 43.4141 172.063C42.3083 179.807 41.2702 187.118 27.2218 185.801C17.6532 184.904 8.88566 177.463 5.41025 167.29C-0.502466 149.978 7.41876 133.486 15.0692 117.535C16.6602 114.22 18.3076 110.785 19.7632 107.47" fill="white"/>
<path d="M523.001 150.733C519.096 152.029 515.023 153.314 510.837 154.632C490.424 161.079 467.281 168.38 453.12 180.152C448.787 183.748 445.402 188.338 442.118 192.787C435.438 201.838 429.131 210.38 415.714 210.229C399.951 210.045 385.654 202.097 371.82 194.418L368.548 192.604C353.811 184.471 336.468 176.631 319.463 180.033C319.418 180.044 319.373 180.054 319.328 180.065C305.099 182.959 302.82 190.606 300.405 198.684C299.028 203.306 297.595 208.091 293.838 212.346C290.565 216.039 285.544 217.951 280.681 219.798C274.791 222.033 268.709 224.355 265.369 229.841C262.999 233.74 261.058 237.995 259.185 242.11C259.084 242.348 258.971 242.574 258.869 242.812H260.438C260.46 242.758 260.483 242.715 260.505 242.661C262.356 238.589 264.274 234.377 266.61 230.543C269.702 225.467 275.298 223.34 281.211 221.083C286.232 219.171 291.423 217.195 294.932 213.242C298.893 208.76 300.371 203.835 301.793 199.073C304.185 191.059 306.25 184.147 319.632 181.415C336.254 178.067 353.303 185.789 367.837 193.802L371.109 195.617C385.101 203.393 399.578 211.428 415.714 211.622C429.887 211.784 436.713 202.54 443.314 193.597C446.541 189.223 449.881 184.698 454.09 181.21C468.037 169.622 491.034 162.364 511.322 155.96C515.35 154.686 519.266 153.454 523.034 152.202V150.733H523.001Z" fill="white"/>
<path d="M24.1431 242.801H26.2419C15.6577 234.237 7.58974 224.614 1 214.419V216.806C7.18353 226.04 14.676 234.863 24.1431 242.801Z" fill="white"/>
<path d="M18.7612 107.069C17.3169 110.363 15.7485 113.636 14.0897 117.102C6.33776 133.226 -1.66246 149.901 4.38566 167.591C7.98519 178.143 17.1251 185.865 27.1112 186.804C42.1751 188.219 43.405 179.698 44.477 172.181C45.1202 167.678 45.7295 163.433 48.9341 161.133C59.0105 153.897 76.4327 170.054 85.1325 180.745C87.0734 183.121 89.0029 185.627 90.8647 188.057C98.7634 198.317 106.933 208.922 118.984 214.452C127.751 218.48 139.757 217.832 148.175 212.896C154.235 209.343 157.642 204.062 157.8 198.014C157.891 194.526 156.898 191.07 155.938 187.733C154.686 183.359 153.501 179.233 154.584 175.119C156.198 168.995 161.908 165.561 167.956 161.921C172.638 159.103 177.468 156.187 180.492 151.867C186.032 143.94 184.125 134.015 182.286 124.425C182.094 123.409 181.902 122.405 181.711 121.411C180.808 116.487 178.743 100.028 190.015 94.7359C201.288 89.4548 213.396 100.773 220.358 112.08C228.313 125.019 236.223 131.617 244.528 132.276C251.625 132.838 258.948 128.863 266.305 120.472C283.152 101.248 299.333 94.6063 324.022 96.7879C329.574 97.2739 334.933 98.2027 340.113 99.099C351.554 101.075 362.342 102.901 374.709 100.384C386.907 97.8679 398.303 93.6884 409.327 89.6384C426.795 83.2234 443.303 77.1755 463.072 76.9379C466.288 76.8947 469.56 76.9811 472.742 77.0675C480.359 77.2619 488.235 77.4563 495.852 76.0199C505.748 74.1407 517.539 68.244 521.026 57.2931C523.452 49.7008 521.24 41.7198 519.119 34.0087C516.851 25.7901 514.707 18.025 517.607 10.6272C518.803 7.58163 520.732 5.00048 523.012 2.58133V0.561768C520.191 3.39131 517.708 6.46925 516.264 10.152C513.195 17.9602 515.508 26.2977 517.731 34.3651C519.807 41.8926 521.962 49.6792 519.66 56.8935C516.354 67.2613 505.037 72.8772 495.581 74.6699C488.122 76.0847 480.325 75.8903 472.788 75.6959C469.594 75.6203 466.299 75.5339 463.061 75.5663C443.043 75.8039 425.644 82.1866 408.82 88.3533C397.841 92.3816 386.5 96.5395 374.415 99.0342C362.409 101.518 351.667 99.6822 340.372 97.7383C335.159 96.8419 329.777 95.9131 324.157 95.4163C299.254 93.2132 282.182 100.211 265.199 119.586C258.158 127.621 251.241 131.434 244.64 130.904C236.934 130.289 229.182 123.723 221.588 111.378C214.321 99.5634 201.525 87.7917 189.372 93.494C177.208 99.207 179.341 116.476 180.289 121.638C180.469 122.632 180.661 123.647 180.864 124.662C182.658 133.993 184.509 143.637 179.285 151.1C176.43 155.182 171.724 158.012 167.177 160.755C161.152 164.384 154.934 168.131 153.185 174.784C152.012 179.255 153.298 183.759 154.55 188.1C155.487 191.34 156.446 194.699 156.367 197.982C156.232 203.544 153.05 208.425 147.43 211.719C139.396 216.428 127.955 217.044 119.605 213.21C107.881 207.831 99.8128 197.356 92.0157 187.236C90.1426 184.806 88.213 182.29 86.2609 179.892C84.0267 177.149 65.8485 155.442 52.387 158.141C50.8749 158.444 49.4306 159.049 48.0653 160.031C44.3755 162.677 43.6984 167.408 43.044 171.998C41.9607 179.568 40.9452 186.718 27.2466 185.433C17.8134 184.547 9.16999 177.203 5.751 167.159C-0.116575 149.977 7.7708 133.55 15.3987 117.664C16.9897 114.348 18.6371 110.914 20.0927 107.588" fill="white"/>
</g>
</svg>
