<svg width="523" height="242" viewBox="0 0 523 242" fill="none" xmlns="http://www.w3.org/2000/svg">
<path opacity="0.7" d="M522.999 234.878C518.226 235.915 513.25 238.021 507.879 241.812H509.086C514.029 238.432 518.587 236.52 522.988 235.537V234.878H522.999Z" fill="white"/>
<path opacity="0.7" d="M522.999 230.828C514.48 231.055 505.543 233.323 494.778 241.574C494.688 241.65 494.598 241.726 494.496 241.801H495.636C506.118 233.874 514.626 231.692 522.988 231.498V230.828H522.999Z" fill="white"/>
<path opacity="0.7" d="M522.999 227.308C511.794 227.221 500.86 227.805 485.988 238.021C484.205 239.242 482.502 240.516 480.82 241.801H481.971C483.416 240.7 484.894 239.62 486.406 238.572C501.097 228.474 511.918 227.902 522.999 227.988V227.308Z" fill="white"/>
<path opacity="0.7" d="M522.999 222.329C520.246 222.653 517.594 222.891 514.976 223.107C503.591 224.068 492.826 224.986 477.187 234.457C473.237 236.855 469.548 239.36 465.971 241.801H467.212C470.529 239.544 473.948 237.244 477.582 235.04C493.074 225.655 503.749 224.748 515.055 223.787C517.651 223.571 520.28 223.344 523.01 223.02V222.329H522.999Z" fill="white"/>
<path opacity="0.7" d="M523 214.499C515.981 216.627 510.057 217.793 504.336 218.906C493.696 220.979 483.619 222.934 468.397 230.904C465.475 232.438 462.677 233.971 459.968 235.462C455.861 237.719 451.923 239.89 447.951 241.812H449.52C453.085 240.041 456.64 238.097 460.33 236.066C463.038 234.576 465.836 233.043 468.747 231.52C483.867 223.603 493.876 221.66 504.483 219.597C510.17 218.484 516.049 217.34 523.011 215.234V214.499H523Z" fill="white"/>
<path opacity="0.7" d="M522.999 203.246C520.562 204.779 518.012 206.119 515.417 207.166L515.033 207.328C514.187 207.674 513.352 208.009 512.539 208.311C504.99 211.14 498.841 213.106 492.894 214.996C483.168 218.106 473.983 221.033 459.607 227.351L458.625 227.783C442.219 234.986 429.265 240.678 410.635 239.771C404.26 239.447 397.67 237.989 390.708 236.455C386.398 235.505 381.941 234.511 377.529 233.82C368.095 232.362 359.181 232.751 350.29 235.019C343.937 236.628 339.141 239.015 335.102 241.823H336.354C340.157 239.295 344.648 237.168 350.47 235.688C359.271 233.453 368.084 233.075 377.416 234.511C381.794 235.202 386.24 236.185 390.539 237.136C397.546 238.68 404.158 240.149 410.59 240.473C429.4 241.391 442.433 235.667 458.919 228.42L459.9 227.988C474.242 221.692 483.416 218.765 493.12 215.666C499.078 213.765 505.227 211.799 512.799 208.97C513.623 208.657 514.458 208.322 515.315 207.976L515.699 207.814C518.193 206.81 520.641 205.535 522.999 204.077V203.246Z" fill="white"/>
<path opacity="0.7" d="M523 187.359C517.911 192.846 510.791 197.9 503.423 201.27L502.497 201.691C501.888 201.972 501.29 202.252 500.692 202.512C495.321 204.877 490.796 206.983 486.429 209.013C475.946 213.895 466.886 218.106 450.806 223.776C434.524 229.522 420.712 232.6 402.162 230.17C396.723 229.446 391.137 228.021 385.236 226.519C380.395 225.288 375.396 224.014 370.42 223.139C361.213 221.552 352.603 221.789 344.084 223.863C330.803 227.103 325.15 233.853 319.158 240.991C318.932 241.261 318.707 241.52 318.492 241.79H319.417C319.519 241.672 319.621 241.542 319.722 241.423C325.635 234.371 331.209 227.718 344.264 224.532C352.682 222.48 361.19 222.243 370.285 223.809C375.227 224.673 380.215 225.947 385.033 227.178C390.968 228.69 396.576 230.116 402.049 230.85C420.746 233.302 434.648 230.202 451.032 224.414C467.134 218.722 476.206 214.51 486.711 209.618C491.078 207.587 495.592 205.492 500.963 203.116C501.561 202.857 502.17 202.576 502.779 202.296L503.693 201.874C510.892 198.58 517.843 193.688 522.955 188.353V187.359H523Z" fill="white"/>
<path opacity="0.7" d="M522.999 170.036C520.923 171.894 519.174 173.752 517.369 175.696C515.45 177.748 513.476 179.875 510.948 182.143C505.622 186.927 498.683 191.636 491.427 195.394C490.976 195.632 490.536 195.859 490.096 196.086C489.678 196.302 489.272 196.518 488.854 196.734C483.28 199.617 478.71 202.501 474.287 205.298C465.339 210.946 456.899 216.281 442.027 220.223C425.879 224.511 411.888 224.619 393.709 220.601C389.399 219.64 385.021 218.344 380.372 216.962C374.82 215.309 369.077 213.614 363.333 212.49C354.363 210.763 346.047 210.86 337.911 212.75C324.415 215.914 319.597 222.869 314.497 230.245C311.8 234.144 309.002 238.162 304.793 241.801H305.865C309.814 238.248 312.5 234.382 315.095 230.634C320.116 223.377 324.856 216.53 338.08 213.43C346.103 211.551 354.318 211.465 363.187 213.171C368.896 214.283 374.617 215.979 380.157 217.62C384.818 219.003 389.218 220.31 393.551 221.271C411.854 225.31 425.947 225.202 442.218 220.882C457.192 216.908 465.689 211.54 474.682 205.87C479.094 203.084 483.653 200.2 489.193 197.338C489.599 197.122 490.017 196.906 490.434 196.69C490.874 196.464 491.314 196.226 491.754 195.999C499.066 192.219 506.051 187.478 511.422 182.651C513.972 180.361 515.958 178.223 517.888 176.16C519.546 174.378 521.137 172.672 522.988 170.976V170.036H522.999Z" fill="white"/>
<path opacity="0.7" d="M5.62634 241.801C4.00148 238.529 2.51202 235.17 1 231.671V233.453C2.2525 236.315 3.49371 239.08 4.83648 241.79H5.62634V241.801Z" fill="white"/>
<path opacity="0.7" d="M523 160.803C522.109 161.224 521.217 161.656 520.36 162.109C518.351 163.168 516.399 164.313 514.221 165.695C510.599 167.995 507.586 170.328 504.404 172.79C502.622 174.173 500.771 175.609 498.729 177.1C493.617 180.836 487.298 184.897 479.433 189.508C478.79 189.886 478.17 190.264 477.549 190.642L477.03 190.956C471.839 194.098 467.619 197.587 463.546 200.967C455.354 207.749 447.613 214.164 433.26 216.67C416.921 219.532 402.782 216.638 385.27 211.032C382.415 210.114 379.549 209.11 376.514 208.041C369.935 205.73 363.142 203.332 356.259 201.842C347.526 199.963 339.48 199.909 331.751 201.637C318.064 204.704 314.092 211.875 309.894 219.456C307.446 223.873 304.918 228.431 300.337 232.481C299.31 233.388 298.193 234.198 297.008 234.889C292.788 237.373 288.083 238.81 283.535 240.192C281.809 240.721 280.105 241.24 278.469 241.812H280.658C281.673 241.488 282.7 241.175 283.75 240.851C288.342 239.458 293.093 238.01 297.38 235.483C298.599 234.77 299.75 233.928 300.811 232.999C305.493 228.874 308.044 224.262 310.515 219.791C314.633 212.35 318.538 205.319 331.898 202.317C339.571 200.6 347.458 200.665 356.09 202.522C362.928 204.002 369.71 206.389 376.254 208.7C379.29 209.769 382.167 210.784 385.022 211.702C402.647 217.34 416.876 220.255 433.373 217.361C447.94 214.812 455.737 208.343 463.997 201.496C468.048 198.138 472.246 194.66 477.391 191.55L477.91 191.236C478.519 190.858 479.151 190.48 479.783 190.113C487.671 185.491 494.001 181.419 499.146 177.661C501.2 176.16 503.05 174.724 504.833 173.341C508.004 170.879 510.994 168.557 514.594 166.289C516.76 164.917 518.69 163.783 520.687 162.736C521.432 162.347 522.21 161.969 522.978 161.602V160.803H523Z" fill="white"/>
<path opacity="0.7" d="M11.7309 241.801C7.96211 236.434 4.78007 230.861 1.57547 225.018C1.38365 224.673 1.19182 224.305 1 223.96V225.439C4.11433 231.131 7.21737 236.563 10.862 241.801H11.7309Z" fill="white"/>
<path opacity="0.7" d="M523 154.938C518.836 156.418 514.559 157.951 510.497 159.679C508.477 160.533 506.367 161.494 504.031 162.595C497.848 165.533 492.443 168.622 486.519 172.056C480.042 175.825 473.34 179.713 467.438 183.633C466.671 184.141 465.926 184.67 465.193 185.189C460.442 188.558 456.639 192.608 452.961 196.518C445.502 204.466 438.439 211.972 424.481 213.128C407.273 214.553 392.48 208.203 376.818 201.475L374.493 200.47C366.335 196.939 357.906 193.299 349.173 191.193C340.653 189.152 332.958 188.936 325.567 190.524C311.699 193.472 308.596 200.838 305.301 208.635C303.383 213.171 301.408 217.858 297.211 222.027C296.297 222.934 295.259 223.765 294.13 224.5C290.553 226.822 286.344 228.258 282.271 229.651C276.2 231.725 270.468 233.68 266.925 238.302C266.045 239.436 265.221 240.613 264.42 241.801H265.278C266 240.754 266.733 239.717 267.512 238.702C270.919 234.241 276.55 232.319 282.519 230.289C286.638 228.885 290.892 227.427 294.548 225.061C295.721 224.305 296.793 223.441 297.741 222.491C302.029 218.225 304.037 213.473 305.978 208.873C309.194 201.248 312.241 194.044 325.736 191.182C333.003 189.627 340.597 189.833 349.003 191.852C357.681 193.936 366.076 197.576 374.211 201.086L376.536 202.09C392.288 208.862 407.16 215.255 424.56 213.808C438.811 212.631 445.942 205.028 453.503 196.982C457.159 193.094 460.939 189.066 465.633 185.75C466.355 185.232 467.1 184.724 467.867 184.217C473.746 180.318 480.437 176.43 486.914 172.672C492.827 169.237 498.22 166.159 504.37 163.233C506.694 162.131 508.793 161.181 510.813 160.327C514.774 158.643 518.949 157.142 523.022 155.694V154.938H523Z" fill="white"/>
<path opacity="0.7" d="M17.4066 241.801H18.377C12.7238 235.807 8.40216 229.835 4.7575 224.338C3.47115 222.394 2.21865 220.439 1 218.463V219.802C2.02682 221.444 3.07621 223.085 4.14817 224.705C7.72513 230.105 11.934 235.937 17.4066 241.801Z" fill="white"/>
<path opacity="0.7" d="M522.999 150.1C519.129 151.374 515.089 152.66 510.948 153.966C490.558 160.403 467.46 167.693 453.356 179.411C449.056 182.985 445.683 187.554 442.41 191.982C435.674 201.108 429.31 209.726 415.701 209.564C399.848 209.38 385.506 201.41 371.627 193.699C370.532 193.094 369.449 192.489 368.355 191.885C353.674 183.785 336.41 175.976 319.518 179.357C319.473 179.368 319.428 179.378 319.383 179.389C305.368 182.24 303.112 189.789 300.731 197.77C299.343 202.436 297.899 207.253 294.085 211.562C290.756 215.32 285.689 217.242 280.792 219.111C274.959 221.325 268.933 223.625 265.661 229.014C263.291 232.902 261.362 237.136 259.5 241.24C259.409 241.423 259.331 241.618 259.24 241.801H260.019C260.064 241.704 260.109 241.607 260.154 241.51C262.016 237.427 263.934 233.205 266.281 229.349C269.441 224.165 275.342 221.919 281.063 219.748C286.039 217.858 291.196 215.892 294.638 212.005C298.553 207.587 300.009 202.695 301.419 197.954C303.845 189.833 305.933 182.823 319.53 180.059C319.575 180.048 319.62 180.037 319.665 180.026C336.32 176.7 353.437 184.454 367.994 192.479C369.077 193.073 370.171 193.688 371.266 194.293C385.224 202.047 399.645 210.061 415.69 210.244C429.671 210.395 436.148 201.648 442.986 192.371C446.224 187.975 449.587 183.428 453.818 179.918C467.81 168.287 490.852 161.019 511.174 154.604C515.236 153.318 519.197 152.066 522.999 150.813V150.1Z" fill="white"/>
<path opacity="0.7" d="M24.6847 241.801H25.6777C15.3868 233.41 7.4769 224.014 1 214.078V215.158C7.29636 224.64 14.9468 233.691 24.6847 241.801Z" fill="white"/>
<path opacity="0.7" d="M523 140.963C517.347 142.951 511.208 144.884 504.777 146.903C484.985 153.124 462.564 160.165 448.549 171.343C444.408 174.659 441.091 178.86 437.886 182.931C431.206 191.398 424.899 199.39 411.945 199.455C396.926 199.531 383.295 192.824 371.255 186.895L368.547 185.556C366.81 184.692 365.083 183.839 363.368 183.018C350.019 176.592 334.222 170.404 318.301 173.287C316.89 173.546 315.502 173.849 314.159 174.194C300.574 177.693 297.583 184.541 294.684 191.161C293.002 195.016 291.265 198.991 287.439 202.328C284.314 205.049 279.868 206.291 275.151 207.609C268.934 209.348 262.502 211.14 258.722 216.605C255.461 221.292 253.17 226.757 250.959 232.038C249.785 234.846 248.567 237.751 247.235 240.44C247.01 240.905 246.773 241.337 246.547 241.779H247.348C247.529 241.434 247.709 241.099 247.89 240.732C249.232 238.021 250.451 235.105 251.625 232.286C253.825 227.038 256.093 221.605 259.32 216.972C262.954 211.724 269.261 209.963 275.354 208.257C280.139 206.918 284.664 205.654 287.925 202.825C291.863 199.39 293.634 195.34 295.349 191.409C298.306 184.638 301.104 178.244 314.351 174.842C315.671 174.497 317.048 174.205 318.447 173.946C334.154 171.106 349.816 177.24 363.063 183.612C364.779 184.433 366.494 185.286 368.231 186.15L370.939 187.489C383.047 193.45 396.757 200.2 411.956 200.125C425.271 200.049 431.68 191.928 438.473 183.32C441.655 179.281 444.95 175.112 449.023 171.84C462.925 160.749 485.29 153.718 505.014 147.53C511.355 145.542 517.414 143.631 523.011 141.665V140.963H523Z" fill="white"/>
<path opacity="0.7" d="M30.7667 241.801H32.0079C21.356 234.652 12.1484 225.353 4.10304 213.624C3.0198 212.059 1.99297 210.471 1 208.873V210.201C1.81243 211.475 2.63615 212.739 3.505 214.002C11.3924 225.504 20.3968 234.684 30.7667 241.801Z" fill="white"/>
<path opacity="0.7" d="M522.999 131.697C521.803 132.151 520.64 132.583 519.512 133.004C513.216 135.304 506.186 137.497 498.75 139.808C479.511 145.802 457.699 152.595 443.764 163.287C439.769 166.354 436.508 170.199 433.349 173.924C426.737 181.722 420.497 189.087 408.209 189.357C393.777 189.671 380.541 183.849 367.745 178.212L364.924 176.97C362.678 175.987 360.568 175.058 358.413 174.162C345.087 168.622 329.245 163.535 313.018 167.844C311.619 168.211 310.254 168.611 308.956 169.021C296.048 173.06 292.245 179.011 288.894 184.26C286.784 187.554 284.798 190.675 280.826 193.126C277.971 194.887 274.022 195.567 269.835 196.291C263.449 197.403 256.204 198.656 251.815 204.239C247.708 209.467 245.282 216.011 242.946 222.329C242.156 224.478 241.4 226.498 240.588 228.485C238.726 233.021 236.796 236.434 234.54 239.209C233.772 240.138 232.982 241.002 232.17 241.812H233.152C233.817 241.121 234.472 240.408 235.104 239.63C237.406 236.801 239.358 233.334 241.253 228.733C242.077 226.746 242.822 224.705 243.623 222.556C245.947 216.281 248.351 209.801 252.391 204.65C256.611 199.282 263.404 198.105 269.971 196.96C274.225 196.226 278.242 195.524 281.221 193.699C285.339 191.172 287.37 187.986 289.514 184.616C292.967 179.216 296.533 173.633 309.182 169.669C310.468 169.27 311.822 168.87 313.21 168.503C329.233 164.248 344.906 169.291 358.12 174.788C360.264 175.674 362.374 176.603 364.608 177.596L367.429 178.838C380.304 184.508 393.619 190.362 408.209 190.038C420.846 189.768 427.177 182.273 433.891 174.346C437.027 170.652 440.266 166.829 444.204 163.816C458.038 153.21 479.782 146.428 498.964 140.456C506.412 138.134 513.441 135.942 519.76 133.641C520.81 133.252 521.893 132.853 522.999 132.432V131.697Z" fill="white"/>
<path opacity="0.7" d="M39.568 241.801H41.2493C26.6255 235.17 14.4954 224.403 4.23845 208.883C3.09879 207.177 2.02683 205.46 1 203.721V205.093C1.84629 206.486 2.71514 207.868 3.62913 209.251C13.6379 224.403 25.4294 235.073 39.568 241.801Z" fill="white"/>
<path opacity="0.7" d="M40.8314 236.747C44.8372 238.291 47.8161 239.522 50.2082 240.505C51.3705 240.991 52.4199 241.412 53.4016 241.801H55.2972C53.8529 241.25 52.3296 240.624 50.4903 239.868C48.0982 238.885 45.108 237.654 41.0909 236.099C26.4897 230.461 14.4724 220.007 4.35086 204.142C3.15477 202.274 2.03768 200.395 0.988281 198.494V199.92C1.86842 201.453 2.77112 202.976 3.74153 204.499C13.9534 220.504 26.0835 231.045 40.8314 236.747Z" fill="white"/>
<path opacity="0.7" d="M522.998 122.107C519.139 123.986 515.032 125.433 511.376 126.729C505.61 128.76 499.291 130.714 492.589 132.788C473.948 138.555 452.824 145.078 438.968 155.219C435.131 158.027 431.927 161.515 428.835 164.896C422.279 172.045 416.084 178.795 404.451 179.249C390.527 179.789 378.284 174.961 365.33 169.853C364.168 169.389 362.994 168.935 361.832 168.481L361.2 168.233C358.514 167.185 355.987 166.203 353.437 165.306C340.923 160.868 324.415 156.526 307.726 162.412C306.395 162.876 305.074 163.362 303.743 163.848C292.042 168.201 287.438 173.05 283.737 176.959C281.017 179.832 278.659 182.316 274.213 183.925C271.742 184.821 268.413 185.016 264.881 185.221C257.908 185.631 250.009 186.085 244.887 191.874C239.888 197.522 237.507 205.125 235.194 212.48C234.765 213.851 234.336 215.201 233.907 216.508C232.824 219.78 231.267 224.003 228.785 227.664C226.099 231.628 222.962 234.533 219.182 236.563C213.642 239.533 206.725 240.397 200.124 241.024C197.291 241.294 194.741 241.38 192.485 241.466C191.706 241.488 190.973 241.52 190.284 241.553C189.393 241.596 188.58 241.607 187.802 241.628C186.47 241.661 185.263 241.693 184.078 241.823H198.894C199.323 241.79 199.74 241.758 200.191 241.715C206.871 241.078 213.867 240.203 219.532 237.168C223.413 235.084 226.629 232.103 229.383 228.042C231.91 224.305 233.49 220.029 234.584 216.713C235.013 215.396 235.442 214.046 235.871 212.674C238.15 205.384 240.52 197.846 245.417 192.306C250.337 186.744 258.077 186.29 264.915 185.891C268.504 185.685 271.877 185.48 274.45 184.551C279.054 182.888 281.469 180.35 284.256 177.402C288.092 173.352 292.436 168.773 303.991 164.475C305.311 163.978 306.643 163.503 307.963 163.038C324.426 157.239 340.776 161.537 353.177 165.933C355.705 166.829 358.244 167.812 360.918 168.859L361.55 169.108C362.723 169.561 363.886 170.026 365.048 170.479C377.505 175.393 390.391 180.48 404.473 179.929C416.423 179.465 422.708 172.607 429.365 165.339C432.435 161.991 435.617 158.524 439.397 155.759C453.152 145.683 474.219 139.171 492.803 133.436C499.506 131.362 505.836 129.408 511.613 127.367C515.19 126.103 519.185 124.688 522.987 122.874V122.107H522.998Z" fill="white"/>
<path opacity="0.7" d="M522.998 111.07C517.65 115.584 510.033 118.154 503.24 120.444C498.197 122.139 492.769 123.803 487.037 125.563C468.802 131.136 448.13 137.464 434.184 147.152C430.505 149.7 427.379 152.843 424.355 155.867C417.856 162.379 411.706 168.525 400.716 169.14C387.198 169.896 375.305 165.684 362.712 161.224C360.85 160.565 358.988 159.906 357.115 159.258C353.888 158.157 351.203 157.25 348.472 156.429C329.921 150.921 315.726 151.072 302.445 156.947C301.148 157.52 299.839 158.092 298.541 158.653C289.153 162.714 284.233 166.246 280.273 169.075C276.052 172.088 273.277 174.086 267.635 174.702C265.66 174.918 263.099 174.734 260.39 174.551C253.101 174.032 244.018 173.395 237.981 179.475C232.034 185.459 229.766 194.552 227.758 202.565L227.272 204.509C226.291 208.354 225.106 212.426 223.075 216.108C220.694 220.428 217.884 223.495 214.262 225.774C208.981 229.079 202.132 230.224 195.509 231.336L195.305 231.369C194.234 231.552 193.195 231.714 192.214 231.865C189.686 232.265 187.508 232.61 185.692 233.053L185.285 233.15C180.659 234.274 178.549 234.792 174.115 238.604C173.72 238.95 173.302 239.317 172.862 239.695C172.185 240.3 171.452 240.948 170.639 241.618C170.571 241.672 170.504 241.736 170.447 241.79H171.519C172.174 241.24 172.783 240.7 173.347 240.203C173.776 239.825 174.193 239.458 174.588 239.112C178.888 235.408 180.806 234.943 185.455 233.809L185.861 233.712C187.655 233.269 189.822 232.934 192.327 232.535C193.308 232.373 194.346 232.211 195.43 232.038L195.633 232.006C202.324 230.883 209.252 229.716 214.646 226.336C218.381 224.003 221.258 220.85 223.707 216.422C225.772 212.674 226.979 208.559 227.961 204.661L228.446 202.717C230.432 194.779 232.689 185.793 238.5 179.94C244.3 174.097 253.191 174.724 260.334 175.22C263.087 175.415 265.683 175.598 267.714 175.372C273.547 174.724 276.391 172.693 280.701 169.604C284.628 166.797 289.514 163.297 298.834 159.269C300.143 158.707 301.441 158.135 302.75 157.563C315.862 151.774 329.899 151.623 348.269 157.077C350.988 157.887 353.674 158.794 356.89 159.895C358.763 160.543 360.624 161.202 362.475 161.861C375.135 166.343 387.096 170.587 400.772 169.82C412.045 169.194 418.285 162.952 424.897 156.342C427.899 153.329 431.013 150.23 434.635 147.702C448.491 138.069 469.096 131.773 487.285 126.211C493.029 124.451 498.456 122.798 503.511 121.092C510.169 118.845 517.605 116.329 523.021 111.966V111.07H522.998Z" fill="white"/>
<path opacity="0.7" d="M39.1265 230.332C49.7219 234.025 52.6557 234.133 57.1128 234.284C58.6474 234.338 60.3964 234.392 62.6983 234.619C64.8197 234.824 67.178 235.235 69.6717 235.656C70.8791 235.861 72.1203 236.077 73.4066 236.282C75.9229 236.682 78.4392 237.049 80.9104 237.416C87.6694 238.421 94.056 239.36 99.3594 240.602C100.725 240.916 102.068 241.337 103.399 241.801H105.385C103.455 241.045 101.515 240.397 99.5399 239.933C94.2027 238.68 87.8048 237.74 81.0345 236.736C78.5633 236.369 76.0583 236.002 73.5421 235.602C72.267 235.397 71.0258 235.181 69.8184 234.976C67.3134 234.544 64.9438 234.133 62.7886 233.928C60.4641 233.701 58.7039 233.647 57.158 233.593C52.7686 233.442 49.8686 233.345 39.386 229.684C25.5746 224.867 13.8394 214.683 4.50774 199.412C3.25524 197.349 2.09301 195.276 1.00977 193.191V194.703C1.91247 196.399 2.86031 198.073 3.88714 199.747C13.2865 215.169 25.1458 225.461 39.1265 230.332Z" fill="white"/>
<path opacity="0.7" d="M522.999 95.1399C521.216 98.3582 519.253 101.404 516.195 104.201C515.913 104.46 515.62 104.719 515.315 104.979C510 109.396 502.44 111.826 495.117 114.158C490.998 115.476 486.677 116.772 482.107 118.154C464.075 123.587 443.629 129.742 429.4 139.073C425.902 141.374 422.844 144.149 419.899 146.828C413.434 152.703 407.329 158.254 396.97 159.021C383.78 159.993 372.18 156.288 359.903 152.379C357.455 151.601 354.927 150.791 352.411 150.035C349.059 149.031 346.261 148.232 343.508 147.562C324.991 143.059 310.695 144.268 297.165 151.493C295.935 152.152 294.683 152.8 293.34 153.47C288.082 156.083 284.087 158.308 280.871 160.101C272.33 164.863 269.136 166.645 261.068 165.522C259.726 165.339 258.067 164.971 256.329 164.593C248.701 162.919 238.264 160.63 231.076 167.099C224.103 173.374 222.173 184.001 220.616 192.532C219.928 196.323 219.047 200.686 217.344 204.563C215.313 209.186 212.762 212.501 209.31 214.996C204.638 218.355 198.387 219.845 192.339 221.282L190.466 221.724C186.731 222.632 183.447 223.463 181.066 224.597C176.823 226.627 175.605 228.042 172.355 231.822L171.622 232.675C170.708 233.734 169.703 234.868 168.507 236.034L167.052 237.46C165.585 238.907 164.084 240.376 162.516 241.812H163.554C164.93 240.527 166.262 239.22 167.571 237.946L169.026 236.52C170.245 235.332 171.272 234.187 172.186 233.118L172.919 232.265C176.192 228.463 177.286 227.178 181.393 225.223C183.707 224.122 186.956 223.29 190.646 222.394L192.508 221.951C198.624 220.493 204.943 218.992 209.738 215.547C213.304 212.987 215.933 209.575 218.009 204.833C219.736 200.892 220.627 196.474 221.327 192.651C222.861 184.217 224.78 173.719 231.572 167.596C238.489 161.375 248.713 163.621 256.182 165.263C257.943 165.652 259.613 166.019 260.989 166.203C269.306 167.358 272.803 165.414 281.255 160.705C284.46 158.924 288.443 156.699 293.69 154.096C295.044 153.426 296.296 152.778 297.538 152.12C310.898 144.992 325.036 143.804 343.361 148.253C346.103 148.923 348.89 149.722 352.23 150.716C354.746 151.472 357.274 152.282 359.711 153.059C372.067 157.001 383.723 160.716 397.061 159.733C407.667 158.945 413.874 153.318 420.429 147.357C423.363 144.689 426.387 141.935 429.84 139.667C443.979 130.39 464.369 124.245 482.355 118.835C486.936 117.452 491.258 116.156 495.376 114.839C502.418 112.582 510.395 110.033 515.811 105.518C516.127 105.259 516.432 104.989 516.725 104.719C519.467 102.203 521.386 99.4166 523.033 96.5871V95.1399H522.999Z" fill="white"/>
<path opacity="0.7" d="M37.4113 223.928C47.7134 227.157 50.6923 226.228 54.1565 225.148C55.9055 224.597 57.7221 224.036 60.7123 223.96C63.9169 223.874 67.6632 224.522 71.5335 225.256C80.0979 226.865 89.7456 229.338 97.3508 231.898C103.06 233.82 108.443 237.146 114.119 240.667C114.728 241.045 115.349 241.423 115.969 241.812H117.301C116.364 241.24 115.439 240.667 114.513 240.095C108.793 236.542 103.388 233.194 97.5878 231.25C89.9487 228.69 80.2559 226.195 71.6689 224.586C67.7534 223.841 63.9621 223.193 60.6898 223.28C57.598 223.366 55.6459 223.971 53.9308 224.511C50.5908 225.547 47.7134 226.455 37.637 223.29C24.3447 219.122 13.2414 209.499 4.63187 194.692C3.30038 192.392 2.10429 190.081 1.00977 187.77V189.411C1.93504 191.301 2.92801 193.18 3.99997 195.038C12.6998 209.974 23.9384 219.694 37.4113 223.928Z" fill="white"/>
<path opacity="0.7" d="M522.999 81.4351C521.916 82.5042 520.889 83.6274 519.93 84.8154C518.779 86.241 517.718 87.6773 516.692 89.0705C514.006 92.7316 511.456 96.1876 507.326 99.3195C507.033 99.5355 506.739 99.7515 506.435 99.9675C501.222 103.596 494.158 105.724 487.32 107.787L486.993 107.884C484.217 108.715 481.351 109.569 478.406 110.433C460.171 115.789 439.51 121.869 424.616 131.017C421.31 133.047 418.342 135.466 415.487 137.799C409.044 143.059 402.962 148.027 393.224 148.912C380.316 150.1 368.964 146.839 356.936 143.393C353.923 142.529 350.808 141.633 347.683 140.823C344.952 140.121 341.736 139.311 338.52 138.696C320.015 135.142 305.628 137.4 291.862 146.039C290.632 146.806 289.368 147.562 288.104 148.275C269.746 158.632 265.92 160.792 254.456 156.342C253.903 156.126 253.294 155.878 252.651 155.63C245.237 152.66 232.825 147.681 224.125 154.701C217.095 160.371 215.064 170.469 213.925 180.534C213.406 185.081 212.875 189.152 211.589 193.008C209.942 197.943 207.628 201.496 204.333 204.207C200.125 207.652 194.313 209.423 188.683 211.13C187.645 211.443 186.607 211.756 185.602 212.08C182.217 213.16 178.753 214.391 176.429 216.152C173.687 218.225 172.761 220.018 171.486 222.502C170.866 223.712 170.155 225.094 169.105 226.746C168.214 228.139 167.311 229.349 166.33 230.451C162.843 234.371 158.363 238.82 152.992 241.823H154.38C159.379 238.799 163.565 234.608 166.871 230.893C167.876 229.759 168.812 228.528 169.715 227.103C170.787 225.418 171.498 224.036 172.13 222.804C173.359 220.407 174.251 218.679 176.869 216.692C179.103 214.996 182.488 213.786 185.817 212.739C186.821 212.415 187.848 212.113 188.886 211.799C194.573 210.071 200.463 208.289 204.785 204.747C208.193 201.95 210.562 198.3 212.255 193.234C213.564 189.325 214.105 185.21 214.624 180.62C215.753 170.695 217.739 160.76 224.577 155.241C232.938 148.491 245.102 153.362 252.357 156.278C253.001 156.537 253.61 156.774 254.174 157.001C265.966 161.58 269.847 159.399 288.454 148.891C289.729 148.178 291.004 147.411 292.234 146.633C305.831 138.102 320.049 135.866 338.362 139.387C341.556 140.002 344.76 140.802 347.48 141.503C350.594 142.313 353.708 143.21 356.71 144.074C368.795 147.541 380.214 150.824 393.269 149.625C403.222 148.718 409.394 143.674 415.927 138.35C418.771 136.028 421.716 133.63 424.977 131.622C439.793 122.528 460.408 116.459 478.586 111.113C481.531 110.249 484.409 109.407 487.173 108.564L487.5 108.467C494.384 106.393 501.515 104.244 506.818 100.551C507.134 100.335 507.439 100.108 507.732 99.8811C511.952 96.6844 514.525 93.196 517.245 89.4917C518.26 88.1093 519.321 86.673 520.46 85.2582C521.25 84.2862 522.085 83.3574 522.965 82.4502V81.4351H522.999Z" fill="white"/>
<path opacity="0.7" d="M35.6962 217.512C46.5286 220.547 49.3383 218.43 52.3059 216.206C53.9195 214.996 55.5782 213.732 58.7264 213.279C62.2582 212.76 66.4333 213.506 69.6717 214.218C76.9723 215.806 85.6157 218.819 95.3649 223.171C100.522 225.483 105.351 228.874 110.474 232.47C115.202 235.796 120.031 239.188 125.301 241.801H126.903C121.182 239.144 115.969 235.483 110.891 231.909C105.746 228.291 100.894 224.878 95.6696 222.534C85.8752 218.16 77.1867 215.126 69.8297 213.538C66.5348 212.814 62.2695 212.058 58.6249 212.588C55.3074 213.074 53.5584 214.391 51.8771 215.655C49.0562 217.772 46.3932 219.78 35.9106 216.843C19.9553 212.382 10.1609 199.747 4.76727 189.93C3.34551 187.338 2.11558 184.713 1.00977 182.078V183.925C1.94632 186.053 2.97315 188.159 4.12409 190.254C9.57417 200.19 19.4926 212.987 35.6962 217.512Z" fill="white"/>
<path opacity="0.7" d="M522.999 75.3008C518.881 77.5363 515.337 80.0311 512.223 82.8822C511.185 83.8326 510.192 84.783 509.222 85.7118C505.983 88.8113 502.925 91.7489 498.457 94.438C498.164 94.6108 497.87 94.7944 497.554 94.9672C492.522 97.7968 486.112 99.5895 479.906 101.328L477.729 101.944C459.28 107.117 436.328 113.564 419.82 122.971C416.717 124.731 413.874 126.794 411.132 128.781C404.689 133.436 398.607 137.821 389.467 138.836C376.784 140.24 365.635 137.356 353.832 134.311C350.301 133.404 346.656 132.453 342.966 131.633C339.22 130.812 336.23 130.239 333.555 129.861C315.027 127.194 300.539 130.509 286.581 140.629C285.362 141.514 284.121 142.357 282.902 143.134C264.589 154.766 259.263 154.485 247.855 147.227C234.472 138.706 224.452 137.119 217.208 142.357C209.151 148.189 207.673 160.112 207.267 168.579L207.256 168.73C207.053 172.996 206.838 177.413 205.857 181.484C204.593 186.722 202.539 190.524 199.38 193.451C195.532 197.014 190.048 199.012 184.745 200.956C183.391 201.453 182.048 201.939 180.761 202.447C177.579 203.7 174.025 205.309 171.825 207.717C169.636 210.125 169.105 212.35 168.496 214.942C168.09 216.648 167.638 218.582 166.612 220.817C165.935 222.297 165.133 223.614 164.163 224.856C157.099 233.993 144.71 242.276 131.101 238.097C121.939 235.278 114.446 229.327 107.202 223.56C102.655 219.942 98.3558 216.53 93.7181 213.884C86.5191 209.78 77.0858 204.79 67.9572 202.544C63.1616 201.356 59.5169 201.172 56.5154 201.972C53.0852 202.879 51.528 204.92 50.0273 206.885C47.5561 210.125 45.2204 213.193 34.1397 210.471C17.9248 206.486 8.84137 192.954 4.85819 185.232C3.31231 182.24 2.03724 179.216 0.976562 176.171V178.223C1.91312 180.674 2.96251 183.115 4.21501 185.534C8.24333 193.353 17.4735 207.08 33.9591 211.13C45.5025 213.97 48.0977 210.568 50.6027 207.285C52.0358 205.406 53.514 203.473 56.696 202.63C59.5846 201.874 63.0939 202.047 67.7654 203.214C76.8037 205.438 86.1806 210.406 93.3345 214.478C97.9157 217.091 102.192 220.493 106.728 224.09C114.029 229.889 121.578 235.894 130.864 238.745C144.834 243.043 157.517 234.598 164.727 225.267C165.72 223.982 166.555 222.621 167.255 221.098C168.315 218.808 168.778 216.832 169.184 215.104C169.771 212.609 170.279 210.449 172.344 208.181C174.442 205.881 177.895 204.315 181.01 203.095C182.296 202.587 183.628 202.101 184.982 201.604C190.353 199.639 195.904 197.608 199.854 193.947C203.115 190.923 205.247 187.014 206.534 181.646C207.527 177.51 207.741 173.061 207.955 168.762L207.967 168.611C208.373 160.284 209.806 148.556 217.626 142.908C224.588 137.864 234.337 139.473 247.437 147.8C259.646 155.576 265.683 154.884 283.286 143.707C284.527 142.918 285.78 142.076 287.01 141.18C300.799 131.179 315.118 127.907 333.443 130.542C336.094 130.92 339.073 131.481 342.797 132.302C346.475 133.123 350.12 134.062 353.641 134.97C365.511 138.037 376.716 140.931 389.546 139.516C398.889 138.48 405.038 134.03 411.56 129.321C414.291 127.345 417.123 125.304 420.192 123.554C436.622 114.191 459.528 107.765 477.932 102.592L480.109 101.976C486.349 100.227 492.804 98.4231 497.915 95.5504C498.231 95.3776 498.536 95.194 498.829 95.0104C503.377 92.2781 506.457 89.3189 509.729 86.187C510.7 85.2582 511.682 84.3186 512.72 83.3682C515.699 80.6359 519.095 78.2383 522.999 76.0784V75.3008Z" fill="white"/>
<path opacity="0.7" d="M523 71.9852C521.352 72.644 519.739 73.2812 518.17 73.9292C512.878 76.1432 508.421 78.4327 504.528 80.9383L503.039 81.8994C498.672 84.729 494.892 87.1697 489.6 89.5457C489.306 89.6753 489.001 89.8157 488.697 89.9453C484.014 91.9432 478.429 93.3688 473.035 94.7404L470.733 95.3344C455.24 99.3303 432.616 105.713 415.036 114.893C412.193 116.372 409.518 118.057 406.923 119.688C400.435 123.749 394.308 127.593 385.721 128.727C373.218 130.369 362.239 127.809 350.617 125.109C346.611 124.181 342.47 123.209 338.261 122.431C334.583 121.751 331.423 121.286 328.591 121.005C309.758 119.148 295.62 123.381 281.301 135.186C280.104 136.168 278.886 137.097 277.69 137.95C260.448 150.176 253.147 148.61 241.22 138.069C236.91 134.257 221.936 122.399 210.28 129.969C203.679 134.257 200.418 143.21 200.599 156.58L200.61 157.498C200.666 161.634 200.734 165.922 200.125 169.929C199.256 175.469 197.439 179.519 194.415 182.661C190.872 186.344 185.636 188.58 180.581 190.74C179.024 191.399 177.411 192.09 175.91 192.802C171.408 194.919 168.812 196.863 167.233 199.272C165.371 202.101 165.258 204.866 165.145 207.782C165.055 209.996 164.965 212.285 164.13 214.877C163.633 216.432 162.911 217.912 162.008 219.262C155.667 228.755 141.652 236.347 128.179 231.714C118.475 228.377 110.836 221.53 103.457 214.91C99.5185 211.378 95.7948 208.03 91.7778 205.201C84.6238 200.146 75.247 194.034 66.1071 191.517C61.3566 190.2 57.5314 190.135 54.4509 191.312C50.9642 192.64 49.6215 195.384 48.3238 198.03C46.1799 202.404 44.1714 206.551 32.4137 204.056C21.1637 201.68 10.918 192.867 5.00531 180.502C3.25633 176.84 1.96997 173.147 0.988281 169.453V172.088C1.8797 175.004 2.97423 177.91 4.35085 180.793C10.3538 193.364 20.7914 202.306 32.267 204.736C44.5889 207.339 46.8231 202.76 48.9896 198.332C50.2759 195.686 51.4946 193.191 54.7217 191.96C57.6555 190.837 61.3228 190.913 65.9153 192.187C74.9423 194.671 84.2515 200.751 91.3603 205.762C95.3322 208.57 99.0445 211.897 102.971 215.417C110.407 222.081 118.103 228.982 127.942 232.373C141.912 237.179 155.96 229.608 162.617 219.64C163.554 218.236 164.299 216.702 164.818 215.082C165.675 212.404 165.766 210.071 165.867 207.814C165.991 204.866 166.093 202.328 167.853 199.65C169.354 197.349 171.87 195.492 176.237 193.429C177.726 192.727 179.261 192.068 180.886 191.377C186.009 189.195 191.312 186.927 194.957 183.137C198.082 179.886 199.956 175.728 200.847 170.037C201.468 165.965 201.4 161.656 201.343 157.487L201.332 156.569C201.152 143.447 204.3 134.689 210.698 130.531C221.914 123.252 236.526 134.84 240.747 138.566C252.448 148.912 260.222 151.191 278.13 138.49C279.348 137.626 280.567 136.687 281.786 135.693C295.936 124.029 309.916 119.839 328.523 121.675C331.333 121.956 334.47 122.409 338.126 123.09C342.323 123.867 346.453 124.829 350.459 125.768C362.149 128.49 373.196 131.06 385.834 129.408C394.601 128.252 401.067 124.191 407.329 120.271C409.913 118.651 412.576 116.977 415.397 115.508C432.91 106.372 455.477 99.9999 470.936 96.0148L473.227 95.4316C478.643 94.0492 484.251 92.6128 488.99 90.6041C489.306 90.4745 489.611 90.3341 489.915 90.2045C495.264 87.8069 499.247 85.2366 503.456 82.5042L504.945 81.5431C508.805 79.0591 513.228 76.7911 518.475 74.588C519.953 73.9724 521.465 73.3676 523.011 72.752V71.9852H523Z" fill="white"/>
<path opacity="0.7" d="M523 69.2312C519.051 70.9808 514.842 72.5143 510.656 73.9615C505.871 75.6139 501.211 77.2446 496.844 79.0158C491.281 81.2622 486.463 82.9577 480.742 84.6749L479.828 84.9449C475.992 86.0573 471.76 86.9969 467.664 87.9148C465.972 88.2928 464.279 88.6708 462.609 89.0596C443.934 93.4119 425.339 99.719 410.264 106.825C407.781 107.992 405.355 109.277 403.019 110.519C396.396 114.04 390.145 117.355 381.975 118.608C369.619 120.509 358.764 118.23 347.277 115.811C342.843 114.882 338.25 113.91 333.534 113.197C329.855 112.646 326.605 112.29 323.615 112.128C304.692 111.07 290.463 116.329 276.02 129.721C274.847 130.812 273.662 131.827 272.477 132.756C255.371 146.223 245.96 141.784 234.575 128.9C226.631 119.915 213.7 111.556 203.364 117.582C194.337 122.841 193.265 135.175 193.942 144.581L194.066 146.299C194.371 150.305 194.686 154.442 194.393 158.373C193.953 164.194 192.385 168.481 189.462 171.872C186.167 175.696 181.135 178.147 176.271 180.512C174.534 181.355 172.728 182.229 171.069 183.147C168.079 184.8 164.412 187.154 162.652 190.805C161.049 194.12 161.365 197.349 161.715 200.762C161.975 203.354 162.246 206.043 161.659 208.916C161.32 210.59 160.711 212.177 159.865 213.646C154.2 223.495 138.944 230.537 125.269 225.31C114.955 221.379 107.169 213.506 99.643 205.892C96.4723 202.695 93.2 199.38 89.8487 196.507C79.9753 188.018 71.3658 182.629 64.2683 180.469C59.4614 179.011 55.5798 179.065 52.3977 180.642C48.8772 182.391 47.7601 185.793 46.6768 189.098C44.8714 194.606 43.1789 199.822 30.6877 197.63C17.9257 195.373 9.12434 184.843 5.14116 175.739C2.8844 170.566 1.60933 165.36 1 160.165V164.745C1.73345 168.503 2.85054 172.261 4.47541 176.009C8.5263 185.286 17.5082 196.01 30.5523 198.289C43.6641 200.589 45.5485 194.844 47.3651 189.282C48.4484 185.977 49.4639 182.845 52.725 181.236C55.7264 179.746 59.4388 179.702 64.0539 181.106C71.0611 183.234 79.5804 188.58 89.3747 196.993C92.7035 199.855 95.8178 203.008 99.1239 206.345C106.707 214.013 114.549 221.94 125.009 225.936C139.035 231.282 154.674 224.068 160.497 213.959C161.377 212.426 162.009 210.773 162.37 209.035C162.979 206.065 162.708 203.332 162.437 200.686C162.11 197.371 161.794 194.228 163.318 191.085C164.626 188.375 167.131 186.107 171.442 183.731C173.089 182.823 174.883 181.949 176.61 181.106C181.541 178.709 186.641 176.236 190.038 172.294C193.05 168.795 194.675 164.377 195.127 158.405C195.42 154.42 195.104 150.251 194.799 146.223L194.675 144.517C194.009 135.294 195.036 123.23 203.747 118.143C213.7 112.333 226.281 120.541 234.044 129.321C245.723 142.551 255.382 147.087 272.951 133.263C274.147 132.324 275.343 131.287 276.539 130.196C290.824 116.955 304.895 111.75 323.593 112.798C326.572 112.96 329.787 113.316 333.443 113.867C338.137 114.58 342.707 115.541 347.142 116.47C358.697 118.899 369.619 121.189 382.099 119.277C390.381 118.003 396.983 114.504 403.38 111.113C405.705 109.882 408.12 108.596 410.591 107.441C425.632 100.356 444.16 94.0707 462.79 89.7292C464.46 89.3404 466.152 88.9624 467.833 88.5844C471.941 87.6665 476.195 86.7269 480.043 85.6037L480.968 85.3337C486.723 83.6057 491.552 81.9102 497.138 79.653C501.482 77.8926 506.131 76.2727 510.915 74.6203C515.011 73.2055 519.13 71.7044 523.011 70.0088V69.2312H523Z" fill="white"/>
<path opacity="0.7" d="M14.1213 97.7968C13.8618 100.94 13.1283 104.007 12.3498 107.128C11.2665 111.405 9.86732 115.768 8.38914 120.39C3.37913 135.985 -2.28534 153.664 4.59778 171.257C8.95333 182.37 18.4656 190.47 28.8467 191.885C42.7709 193.785 44.2829 186.906 45.7385 180.242C46.6074 176.29 47.4198 172.553 50.7147 170.555C53.7839 168.687 57.5301 168.535 62.179 170.08C72.2329 173.406 83.1556 183.914 87.3871 188.277C90.0387 191.01 92.6453 194.001 95.1729 196.885C102.902 205.719 110.903 214.867 122.062 219.554C135.163 225.051 152.799 219.597 158.362 208.333C159.186 206.669 159.694 204.888 159.897 203.03C160.247 199.812 159.603 196.723 158.994 193.731C158.204 189.876 157.459 186.236 158.768 182.575C159.897 179.432 162.323 176.819 166.633 174.087C168.382 172.985 170.312 171.937 172.174 170.922C176.969 168.309 181.923 165.609 185.105 161.505C188.016 157.736 189.381 153.07 189.404 146.828C189.404 142.94 188.874 138.933 188.343 135.045C188.23 134.192 188.118 133.35 188.005 132.507C187.192 126.287 186.425 111.221 196.795 105.799C207.571 100.14 219.983 109.979 227.34 120.131C234.742 130.337 241.4 135.434 248.317 136.19C254.365 136.849 260.729 134.192 267.759 128.079C268.898 127.097 270.072 125.963 271.268 124.731C285.598 109.882 299.771 103.672 318.637 103.953C321.774 103.996 325.08 104.233 328.736 104.665C333.882 105.281 338.869 106.231 343.699 107.149C355.152 109.331 365.984 111.383 378.351 109.18C386.509 107.722 393.584 104.655 400.422 101.674C402.194 100.907 403.965 100.13 405.76 99.3844C417.799 94.3841 435.955 87.2778 454.63 83.4547C460.069 82.3423 465.733 81.4459 471.082 80.6251L472.007 80.4847C473.925 80.1931 475.787 79.9231 477.615 79.6531C481.609 79.0808 485.378 78.53 489.316 77.774C493.525 76.964 498.422 75.9812 503.342 74.6636C509.661 72.9573 517.131 70.1817 523.01 65.7538V64.8574C517.165 69.4149 509.559 72.2661 503.15 73.994C498.264 75.3116 493.367 76.2836 489.181 77.0936C485.254 77.8496 481.496 78.3896 477.513 78.9619C475.685 79.2211 473.824 79.4911 471.894 79.7935L470.969 79.9339C465.62 80.7547 459.944 81.6511 454.483 82.7743C435.752 86.619 417.54 93.7361 405.477 98.7472C403.672 99.4924 401.901 100.27 400.129 101.037C393.02 104.125 386.306 107.052 378.227 108.489C365.995 110.67 355.231 108.629 343.845 106.458C339.005 105.54 334.006 104.59 328.827 103.974C325.137 103.531 321.808 103.305 318.649 103.251C299.556 102.959 285.226 109.245 270.749 124.256C269.564 125.477 268.402 126.589 267.273 127.561C260.402 133.533 254.229 136.136 248.396 135.488C241.704 134.764 235.205 129.753 227.927 119.72C220.401 109.342 207.65 99.298 196.445 105.184C185.692 110.8 186.459 126.211 187.294 132.572C187.407 133.415 187.52 134.257 187.632 135.11C188.151 138.976 188.693 142.962 188.682 146.806C188.67 152.897 187.35 157.433 184.529 161.073C181.426 165.058 176.54 167.725 171.812 170.296C169.939 171.322 167.999 172.369 166.238 173.482C163.237 175.382 159.603 178.104 158.091 182.327C156.715 186.161 157.482 189.897 158.294 193.839C158.904 196.788 159.524 199.822 159.186 202.944C158.994 204.726 158.498 206.432 157.719 208.019C152.314 218.981 135.14 224.262 122.367 218.906C111.354 214.283 103.41 205.201 95.7371 196.431C93.2095 193.537 90.5804 190.545 87.9287 187.791C82.6253 182.327 72.2668 172.672 62.4273 169.41C57.6317 167.823 53.5582 168.006 50.3423 169.961C46.7992 172.121 45.9078 176.171 45.0502 180.091C43.5946 186.733 42.218 192.997 28.9595 191.193C18.8379 189.811 9.54008 181.884 5.28609 170.998C-1.51804 153.632 4.12386 136.071 9.08873 120.574C10.5782 115.951 11.9774 111.577 13.0606 107.279C13.8166 104.255 14.5839 101.037 14.8548 97.84" fill="white"/>
<path opacity="0.7" d="M19.0862 106.2C17.6419 109.505 16.0734 112.777 14.4034 116.244C6.68532 132.314 -1.28105 148.924 4.71065 166.495C8.26505 176.917 17.2808 184.541 27.1316 185.47C41.8569 186.853 42.9966 178.872 44.1024 171.15C44.7569 166.581 45.3775 162.262 48.6949 159.875C58.997 152.488 76.611 168.763 85.3898 179.552C87.3307 181.939 89.2602 184.444 91.1333 186.874C99.0094 197.102 107.145 207.675 119.117 213.172C127.783 217.146 139.642 216.509 147.97 211.627C153.916 208.139 157.279 202.955 157.426 197.026C157.516 193.581 156.523 190.157 155.575 186.842C154.311 182.425 153.104 178.256 154.21 174.044C155.857 167.791 161.623 164.313 167.739 160.631C172.388 157.834 177.195 154.939 180.174 150.673C185.635 142.865 183.739 133.005 181.911 123.479C181.72 122.464 181.528 121.46 181.336 120.466C180.422 115.488 178.346 98.8235 189.833 93.4237C201.32 88.0346 213.608 99.4715 220.637 110.909C228.536 123.739 236.345 130.294 244.537 130.942C251.51 131.493 258.732 127.562 266.01 119.257C282.947 99.9251 299.207 93.2509 324.042 95.454C329.605 95.9508 334.976 96.8688 340.167 97.7652C351.462 99.7091 362.136 101.556 374.266 99.1259C374.379 99.1043 374.503 99.0827 374.616 99.0503C386.78 96.5448 398.166 92.3653 409.179 88.3261C425.912 82.1919 443.211 75.8416 463.047 75.604C466.263 75.5608 469.547 75.6472 472.729 75.7336C480.323 75.928 488.188 76.1224 495.759 74.686C505.497 72.8284 517.21 67.0074 520.663 56.1968C523.055 48.7017 520.866 40.7747 518.744 33.096C516.567 25.1798 514.298 17.0043 517.244 9.50927C518.496 6.33413 520.584 3.60178 522.987 1.08543V0.0594482C520.301 2.7918 517.954 5.75094 516.578 9.27167C513.554 16.9719 515.844 25.2662 518.056 33.2796C520.143 40.8611 522.31 48.6909 519.974 56.0024C516.668 66.3702 505.52 72.0401 496.03 73.93C495.895 73.9624 495.759 73.984 495.624 74.0056C488.12 75.4312 480.312 75.226 472.751 75.0424C469.569 74.9668 466.275 74.8804 463.047 74.9128C443.086 75.1612 425.732 81.5331 408.942 87.689C397.951 91.7173 386.6 95.886 374.481 98.3916C374.368 98.4132 374.244 98.4348 374.131 98.4672C362.136 100.865 351.53 99.0395 340.302 97.0956C335.1 96.1992 329.718 95.2704 324.121 94.7736C299.353 92.5813 282.36 99.5471 265.479 118.825C258.359 126.957 251.341 130.802 244.616 130.273C236.683 129.646 229.044 123.199 221.281 110.574C214.093 98.8883 201.466 87.2246 189.539 92.8189C177.601 98.424 179.722 115.498 180.648 120.596C180.828 121.59 181.02 122.605 181.223 123.62C183.029 133.016 184.89 142.725 179.598 150.306C176.698 154.442 171.959 157.304 167.378 160.058C161.138 163.817 155.248 167.359 153.533 173.882C152.382 178.267 153.657 182.716 154.898 187.025C155.835 190.287 156.805 193.667 156.726 197.004C156.579 202.685 153.352 207.675 147.62 211.033C139.484 215.796 127.907 216.422 119.456 212.545C107.653 207.124 99.5623 196.626 91.7426 186.464C89.8695 184.034 87.94 181.518 85.9879 179.131C83.765 176.409 65.7222 154.853 52.4863 157.499C51.0194 157.79 49.6089 158.384 48.2887 159.335C44.723 161.894 44.0573 166.56 43.4141 171.063C42.3083 178.807 41.2702 186.118 27.2218 184.801C17.6532 183.904 8.88566 176.463 5.41025 166.29C-0.502466 148.978 7.41876 132.486 15.0692 116.535C16.6602 113.22 18.3076 109.785 19.7632 106.47" fill="white"/>
</svg>
