<svg width="834" height="275" viewBox="0 0 834 275" fill="none" xmlns="http://www.w3.org/2000/svg">
<path d="M806.895 135.268C809.205 139.447 811.714 143.598 814.368 147.997C826.768 168.453 839.565 189.607 829.89 212.05C824.133 225.436 809.512 235.233 793.538 236.425C769.442 238.22 767.474 227.409 765.76 217.873C764.731 212.16 763.756 206.775 758.63 203.857C742.512 194.677 714.643 215.174 700.726 228.738C697.622 231.753 694.535 234.931 691.557 238.014C678.922 251.03 665.854 264.485 646.577 271.5C632.552 276.611 613.347 275.788 599.882 269.527C590.19 265.019 584.739 258.319 584.486 250.647C584.341 246.221 585.93 241.837 587.464 237.603C589.468 232.054 591.363 226.82 589.63 221.6C587.049 213.831 577.916 209.474 568.241 204.857C560.75 201.281 553.025 197.582 548.188 192.101C539.325 182.044 542.376 169.453 545.318 157.286C545.625 155.998 545.932 154.724 546.238 153.463C547.682 147.216 550.986 126.335 532.954 119.621C514.922 112.921 495.555 127.28 484.418 141.625C471.693 158.04 459.04 166.411 445.755 167.247C434.402 167.959 422.688 162.917 410.919 152.271C383.971 127.883 358.088 119.457 318.595 122.224C309.714 122.841 301.141 124.019 292.856 125.157C274.553 127.664 257.298 129.979 237.515 126.787C218.004 123.595 199.773 118.292 182.139 113.154C154.198 105.016 127.791 97.3429 96.1677 97.0415C91.0234 96.9867 85.789 97.0963 80.699 97.2059C68.5154 97.4525 55.9167 97.6992 43.7331 95.8769C27.9034 93.4929 9.0415 86.0119 3.46411 72.1188C-0.416626 62.4868 3.12109 52.3616 6.51447 42.5789C10.1425 32.1522 13.572 22.301 8.93317 12.9156C7.0199 9.05183 3.93335 5.77722 0.287354 2.70814V0.145996C4.79974 3.73573 8.77069 7.6406 11.0811 12.3127C15.9906 22.2188 12.2904 32.7962 8.73462 43.031C5.41345 52.5808 1.96594 62.4594 5.64813 71.6119C10.9367 84.7651 29.0406 91.8898 44.1663 94.1642C56.0972 95.9591 68.5696 95.7125 80.6268 95.4658C85.7349 95.3699 91.0054 95.2603 96.1857 95.3014C128.206 95.6028 156.039 103.7 182.951 111.524C200.513 116.634 218.653 121.909 237.985 125.074C257.19 128.226 274.373 125.896 292.441 123.43C300.78 122.293 309.389 121.115 318.378 120.484C358.214 117.689 385.523 126.568 412.688 151.148C423.951 161.342 435.016 166.178 445.575 165.507C457.903 164.726 470.303 156.395 482.451 140.735C494.075 125.746 514.543 110.811 533.983 118.046C553.44 125.294 550.029 147.202 548.513 153.751C548.224 155.012 547.917 156.3 547.592 157.587C544.722 169.425 541.762 181.661 550.119 191.128C554.686 196.307 562.212 199.897 569.487 203.377C579.125 207.981 589.071 212.735 591.868 221.175C593.745 226.847 591.688 232.561 589.684 238.069C588.186 242.179 586.652 246.44 586.778 250.605C586.995 257.662 592.085 263.855 601.074 268.034C613.925 274.007 632.227 274.788 645.584 269.924C664.338 263.101 677.244 249.811 689.716 236.973C692.712 233.89 695.799 230.698 698.921 227.656C702.495 224.176 731.573 196.636 753.107 200.061C755.525 200.445 757.836 201.212 760.02 202.459C765.922 205.816 767.005 211.817 768.052 217.64C769.785 227.245 771.409 236.315 793.322 234.685C808.411 233.561 822.237 224.244 827.706 211.502C837.092 189.703 824.475 168.864 812.274 148.709C809.729 144.503 807.094 140.146 804.765 135.926" fill="url(#paint0_linear)"/>
<defs>
<linearGradient id="paint0_linear" x1="416.789" y1="0.145996" x2="416.789" y2="274.842" gradientUnits="userSpaceOnUse">
<stop stop-color="#B98787" stop-opacity="0"/>
<stop offset="0.84375" stop-color="#CCA1A1" stop-opacity="0.53"/>
</linearGradient>
</defs>
</svg>
