<svg width="32" height="33" viewBox="0 0 32 33" fill="none" xmlns="http://www.w3.org/2000/svg">
    <path d="M14.6667 24.5H17.3334V21.8333H14.6667V24.5ZM16.0001 3.16666C8.64008 3.16666 2.66675 9.13999 2.66675 16.5C2.66675 23.86 8.64008 29.8333 16.0001 29.8333C23.3601 29.8333 29.3334 23.86 29.3334 16.5C29.3334 9.13999 23.3601 3.16666 16.0001 3.16666ZM16.0001 27.1667C10.1201 27.1667 5.33341 22.38 5.33341 16.5C5.33341 10.62 10.1201 5.83332 16.0001 5.83332C21.8801 5.83332 26.6667 10.62 26.6667 16.5C26.6667 22.38 21.8801 27.1667 16.0001 27.1667ZM16.0001 8.49999C13.0534 8.49999 10.6667 10.8867 10.6667 13.8333H13.3334C13.3334 12.3667 14.5334 11.1667 16.0001 11.1667C17.4667 11.1667 18.6667 12.3667 18.6667 13.8333C18.6667 16.5 14.6667 16.1667 14.6667 20.5H17.3334C17.3334 17.5 21.3334 17.1667 21.3334 13.8333C21.3334 10.8867 18.9467 8.49999 16.0001 8.49999Z" fill="#8A95A3"/>
</svg>
